<?xml version="1.0" encoding="UTF-8" standalone="no"?>
<!-- Created with Inkscape (http://www.inkscape.org/) -->

<svg
   xmlns:dc="http://purl.org/dc/elements/1.1/"
   xmlns:cc="http://creativecommons.org/ns#"
   xmlns:rdf="http://www.w3.org/1999/02/22-rdf-syntax-ns#"
   xmlns:svg="http://www.w3.org/2000/svg"
   xmlns="http://www.w3.org/2000/svg"
   xmlns:sodipodi="http://sodipodi.sourceforge.net/DTD/sodipodi-0.dtd"
   xmlns:inkscape="http://www.inkscape.org/namespaces/inkscape"
   width="256"
   height="256"
   viewBox="0 0 810.1266 810.1266"
   id="svg4259"
   version="1.1"
   inkscape:version="0.92.3 (2405546, 2018-03-11)"
   sodipodi:docname="BASU.svg">
  <defs
     id="defs4261" />
  <sodipodi:namedview
     id="base"
     pagecolor="#ffffff"
     bordercolor="#666666"
     borderopacity="1.0"
     inkscape:pageopacity="0.0"
     inkscape:pageshadow="2"
     inkscape:zoom="1.4"
     inkscape:cx="146.7524"
     inkscape:cy="129.93687"
     inkscape:document-units="px"
     inkscape:current-layer="layer1"
     showgrid="false"
     units="px"
     inkscape:window-width="1366"
     inkscape:window-height="729"
     inkscape:window-x="0"
     inkscape:window-y="0"
     inkscape:window-maximized="1" />
  <metadata
     id="metadata4264">
    <rdf:RDF>
      <cc:Work
         rdf:about="">
        <dc:format>image/svg+xml</dc:format>
        <dc:type
           rdf:resource="http://purl.org/dc/dcmitype/StillImage" />
        <dc:title></dc:title>
      </cc:Work>
    </rdf:RDF>
  </metadata>
  <g
     inkscape:label="Layer 1"
     inkscape:groupmode="layer"
     id="layer1"
     transform="translate(0,-242.23557)">
    <g
       id="g4336"
       transform="matrix(0.78866639,0,0,0.78866639,12.908817,219.89739)"
       style="fill:#000000">
      <path
         transform="translate(0,52.362161)"
         inkscape:connector-curvature="0"
         id="path4278"
         d="m 347.69219,663.34674 -27.72048,-27.50072 -0.0179,-138.78948 -0.0179,-138.78945 -39.32494,-39.01793 -39.32494,-39.01792 35.03922,-35.06027 35.03923,-35.06025 V 154.04979 97.988873 h 54.6526 54.6526 l 39.26623,-39.285714 c 21.59642,-21.607143 40.00952,-39.285714 40.918,-39.285714 0.90845,0 19.29188,17.678571 40.85202,39.285714 l 39.20029,39.285714 h 55.22913 55.22913 v 56.082367 56.08236 l 35.00077,34.9789 35.00076,34.9789 -39.28648,39.30527 -39.28648,39.30529 v 138.57577 138.57576 l -27.5134,27.48627 c -15.13237,15.11744 -28.13873,27.48626 -28.90302,27.48626 -0.76428,0 -7.67098,-6.2578 -15.34821,-13.90622 l -13.9586,-13.90623 20.36161,-20.39734 20.36162,-20.39736 0.33674,-101.76785 c 0.18522,-55.97232 0.742,-119.97728 1.23732,-142.23322 l 0.90058,-40.46536 28.66067,-28.4567 28.66067,-28.4567 -3.46941,-3.72871 c -1.90819,-2.0508 -14.55784,-15.07159 -28.11036,-28.93509 l -24.64091,-25.20637 -0.002,-41.78571 -0.002,-41.78572 h -40.34469 -40.34467 l -29.65533,-29.6301 -29.65531,-29.630095 -29.65532,29.630095 -29.65533,29.6301 h -40.34467 -40.34468 v 41.96665 41.96664 l -27.85715,27.83001 c -15.32142,15.3065 -27.85714,28.24682 -27.85714,28.75623 0,0.50943 13.17857,14.12032 29.28572,30.24643 l 29.28571,29.32019 v 75.43657 c 0,41.49011 0.42541,105.37231 0.94537,141.96044 l 0.94536,66.52386 19.75047,19.78221 19.75047,19.7822 -13.19584,13.16503 c -7.2577,7.24076 -14.05284,13.50894 -15.10029,13.9293 -1.14959,0.46134 -12.89214,-10.1363 -29.62495,-26.73646 z"
         style="fill:#000000;fill-opacity:1;stroke:#000000;stroke-width:1.42857146;stroke-miterlimit:4;stroke-dasharray:none;stroke-dashoffset:0;stroke-opacity:1" />
      <path
         transform="translate(0,52.362161)"
         inkscape:connector-curvature="0"
         id="path4280"
         d="m 484.12924,421.17459 c -9.0865,-7.645 -19.61087,-16.62109 -23.38749,-19.94686 l -6.86656,-6.04684 -35.18394,-0.38173 -35.18394,-0.38172 -0.38272,-33.81388 -0.38273,-33.81387 -16.04584,-15.57297 c -8.82522,-8.56513 -19.65486,-18.91305 -24.06587,-22.99535 l -8.02003,-7.42235 23.73431,-24.41974 23.73431,-24.41974 0.71429,-33.05676 0.71428,-33.05676 35.33017,-0.71429 35.33016,-0.71429 12.52698,-12.44642 c 17.58787,-17.47477 33.63645,-32.55358 34.64724,-32.55358 0.47075,0 3.14034,2.08929 5.93243,4.64286 7.64521,6.99213 38.60824,35.81951 40.63202,37.82947 1.27045,1.26176 10.77952,1.86666 33.68558,2.14285 l 31.91542,0.38482 0.71429,35 0.71429,35 4.28571,4.35944 c 2.35714,2.39769 9.39723,9.79055 15.64464,16.42857 6.24742,6.63802 14.26723,15.13109 17.8218,18.87348 l 6.46286,6.80436 -22.46466,22.4976 -22.46464,22.49761 v 34.62662 34.62661 l -34.64286,0.0491 -34.64285,0.0493 -21.42858,19.88496 c -11.78571,10.93671 -21.75,19.90171 -22.14285,19.92221 -0.39286,0.0204 -8.1487,-6.21774 -17.23522,-13.86274 z m 30.57515,-58.18176 13.08864,-12.13891 21.07143,-0.004 21.07143,-0.004 v -21.09823 -21.09823 l 14.29241,-14.2388 c 7.86084,-7.83133 14.1287,-14.65172 13.92857,-15.1564 -0.20011,-0.50469 -6.14956,-7.14157 -13.22098,-14.74864 l -12.85715,-13.83104 -0.71428,-21.70005 -0.71429,-21.70004 -20.19176,-0.71429 -20.19175,-0.71428 -13.84479,-12.85715 c -7.61463,-7.07143 -14.31067,-13.02863 -14.88008,-13.23823 -0.94342,-0.34727 -21.6449,17.6416 -27.73298,24.09898 -2.28838,2.42719 -4.7909,2.71068 -23.92857,2.71068 h -21.37293 v 20.1389 20.1389 l -9.03207,9.50396 c -17.37669,18.28454 -20.96793,22.22848 -20.96793,23.02734 0,0.44273 6.75,7.10823 15,14.81222 l 15,14.00724 v 21.32857 21.32859 h 21.83055 21.83055 l 14.23799,12.14285 c 7.8309,6.67857 14.45654,12.14286 14.72366,12.14286 0.26713,0 6.37557,-5.4625 13.57433,-12.1389 z"
         style="fill:#000000;fill-opacity:1;stroke:#000000;stroke-width:1.42857146;stroke-miterlimit:4;stroke-dasharray:none;stroke-dashoffset:0;stroke-opacity:1" />
      <path
         transform="translate(0,52.362161)"
         inkscape:connector-curvature="0"
         id="path4282"
         d="m 487.44605,343.54937 c -23.82349,-3.97074 -45.97263,-23.7354 -52.50988,-46.85691 -6.981,-24.69098 -0.68245,-49.85161 16.8603,-67.3514 21.25689,-21.20483 52.91652,-25.63738 81.03344,-11.34519 10.69862,5.43825 23.27046,19.71738 28.60463,32.48922 6.66116,15.9491 7.48058,32.51601 2.33927,47.29475 -2.01005,5.77789 -5.46373,13.13171 -7.67485,16.34183 -10.69876,15.53255 -28.12415,26.75281 -45.72244,29.44083 -11.46021,1.75047 -12.35233,1.74996 -22.93047,-0.0131 z"
         style="fill:#000000;fill-opacity:1;stroke:#000000;stroke-width:1.42857146;stroke-miterlimit:4;stroke-dasharray:none;stroke-dashoffset:0;stroke-opacity:1" />
      <path
         transform="translate(0,52.362161)"
         inkscape:connector-curvature="0"
         id="path4284"
         d="M 320.27248,704.73634 264.2216,648.61907 V 510.81673 373.01439 l -28.57996,-28.60548 -28.57995,-28.60549 12.87533,-12.81568 12.87534,-12.81568 36.4189,36.3979 36.41891,36.3979 V 501.56073 640.1536 l 34.65358,34.63192 c 19.05946,19.04755 35.29965,34.63192 36.08929,34.63192 0.78965,0 11.06275,-9.6431 22.82912,-21.42912 l 21.3934,-21.42913 21.86904,21.78627 21.86906,21.78627 18.28785,-19.01134 18.28786,-19.01135 18.89159,18.89159 18.8916,18.8916 21.70011,-21.66623 21.70012,-21.66623 22.11192,22.14652 22.11195,22.14651 35.37104,-35.34983 35.37104,-35.34981 V 501.56052 362.96786 l 36.4189,-36.3979 36.41892,-36.3979 12.87533,12.81568 12.87534,12.81568 -28.57996,28.60549 -28.57996,28.60548 V 510.86564 648.7169 l -55.36392,55.35027 c -30.45016,30.44265 -56.01205,55.35028 -56.80419,55.35028 -0.79216,0 -10.74507,-9.32143 -22.1176,-20.71429 -11.37253,-11.39286 -21.39413,-20.71429 -22.27023,-20.71429 -0.8761,0 -6.75324,5.30357 -13.0603,11.78572 -6.30707,6.48214 -15.58748,15.81083 -20.62313,20.7304 l -9.15573,8.94468 -18.99718,-18.80178 -18.9972,-18.80177 -18.84489,18.8061 -18.8449,18.80611 -6.38894,-6.56828 c -3.51391,-3.61258 -13.34181,-13.05403 -21.83979,-20.98103 L 419.74846,717.4963 398.0359,739.17494 376.32336,760.8536 Z"
         style="fill:#000000;fill-opacity:1;stroke:#000000;stroke-width:1.42857146;stroke-miterlimit:4;stroke-dasharray:none;stroke-dashoffset:0;stroke-opacity:1" />
      <path
         transform="translate(0,52.362161)"
         inkscape:connector-curvature="0"
         id="path4286"
         d="m 429.5654,653.79431 c -17.88234,-17.72871 -32.50734,-32.67517 -32.5,-33.21437 0.0123,-0.90711 6.43128,-7.39869 47.73742,-48.2777 l 15.12879,-14.97234 12.85928,12.7997 c 7.0726,7.03984 12.85928,13.18389 12.85928,13.65346 0,0.46956 -7.71428,8.58067 -17.14286,18.02467 -9.42857,9.44401 -17.14285,17.7864 -17.14285,18.53865 0,0.75225 2.2191,3.51857 4.93134,6.14738 l 4.93135,4.77965 22.9258,-22.63555 c 12.60918,-12.44955 22.92579,-23.32322 22.92579,-24.1637 0,-0.84049 -8.03571,-9.54458 -17.85714,-19.34243 -9.82143,-9.79785 -17.85714,-18.28773 -17.85714,-18.86641 0,-0.57868 6.77963,-7.82357 15.06585,-16.09975 l 15.06585,-15.04761 34.39971,34.3979 34.39972,34.3979 -17.60245,17.80504 -17.60243,17.80504 17.04778,17.03667 c 9.37628,9.37016 17.23587,17.60093 17.46577,18.2906 0.4149,1.24472 -29.5136,31.70919 -31.15132,31.70919 -0.47014,0 -8.75183,-8.03571 -18.40375,-17.85714 -9.65193,-9.82143 -18.10812,-17.85714 -18.79153,-17.85714 -0.68341,0 -9.22597,8.03571 -18.98348,17.85714 -9.7575,9.82143 -18.29318,17.73744 -18.96817,17.59114 -0.675,-0.14628 -15.85827,-14.77128 -33.74061,-32.49999 z"
         style="fill:#000000;fill-opacity:1;stroke:#000000;stroke-width:1.42857146;stroke-miterlimit:4;stroke-dasharray:none;stroke-dashoffset:0;stroke-opacity:1" />
      <path
         transform="translate(0,52.362161)"
         inkscape:connector-curvature="0"
         id="path4288"
         d="m 564.08174,632.05614 -12.97636,-13.07559 13.56603,-13.56603 13.56603,-13.56603 12.99208,12.91807 c 7.14564,7.10494 12.99208,13.48943 12.99208,14.18775 0,1.79892 -23.93743,26.17742 -25.7038,26.17742 -0.80284,0 -7.29907,-5.88402 -14.43606,-13.07559 z"
         style="fill:#000000;fill-opacity:1;stroke:#000000;stroke-width:1.42857146;stroke-miterlimit:4;stroke-dasharray:none;stroke-dashoffset:0;stroke-opacity:1" />
      <path
         transform="translate(0,52.362161)"
         inkscape:connector-curvature="0"
         id="path4290"
         d="m 481.67015,797.58091 -18.94032,-18.97939 18.43361,-18.33288 c 10.13849,-10.08308 18.85363,-18.70756 19.36697,-19.1655 0.51334,-0.45794 9.58973,7.80595 20.16976,18.3642 l 19.23641,19.19682 -18.90907,18.94807 c -10.39999,10.42144 -19.24836,18.94807 -19.66305,18.94807 -0.41469,0 -9.27713,-8.54072 -19.69431,-18.97939 z"
         style="fill:#000000;fill-opacity:1;stroke:#000000;stroke-width:1.42857146;stroke-miterlimit:4;stroke-dasharray:none;stroke-dashoffset:0;stroke-opacity:1" />
    </g>
    <g
       id="g4320"
       transform="matrix(0.78866639,0,0,0.78866639,908.46111,219.89739)"
       style="fill:#000000">
      <path
         transform="translate(0,52.362161)"
         inkscape:connector-curvature="0"
         id="path4292"
         d="m -379.5183,937.02591 c 0,-0.61093 3.85715,-4.50598 8.57143,-8.65566 4.71429,-4.14969 8.57143,-8.72471 8.57143,-10.16672 0,-1.44201 -1.92857,-4.68638 -4.28571,-7.20971 -2.35715,-2.52333 -4.28572,-5.20428 -4.28572,-5.95768 0,-2.45095 6.03477,-15.47089 7.17079,-15.47089 0.60756,0 3.18196,2.36592 5.72089,5.25759 4.4501,5.06839 4.58533,5.58847 3.75763,14.45215 -1.24331,13.31431 -6.12143,21.01082 -16.11923,25.43232 -8.56402,3.78742 -9.10151,3.92434 -9.10151,2.3186 z"
         style="fill:#000000;fill-opacity:1;stroke:#000000;stroke-width:1.42857146;stroke-miterlimit:4;stroke-dasharray:none;stroke-dashoffset:0;stroke-opacity:1" />
      <path
         transform="translate(0,52.362161)"
         inkscape:connector-curvature="0"
         id="path4294"
         d="m -404.20833,931.98053 c -0.16794,-0.43765 -0.0281,-1.72689 0.31068,-2.86498 0.33882,-1.1381 0.83028,-3.06782 1.09214,-4.28828 0.26186,-1.22046 0.69762,-2.48592 0.96836,-2.81214 0.45221,-0.54488 1.353,-4.97963 2.56877,-12.64651 0.2643,-1.66675 0.68954,-3.59867 0.94496,-4.29315 0.25543,-0.69448 0.61656,-3.19461 0.80253,-5.55584 0.58544,-7.43353 0.8049,-8.57639 2.2792,-11.86929 2.10601,-4.70381 2.51218,-5.74734 2.51218,-6.45421 0,-0.41014 0.34093,-1.02865 0.75762,-1.37447 0.41668,-0.34582 0.75761,-1.03927 0.75761,-1.541 0,-0.50172 0.34093,-1.25316 0.75762,-1.66984 0.41668,-0.41669 0.75761,-1.09619 0.75761,-1.51 0,-1.29735 0.58557,-2.35023 1.30711,-2.35023 0.9471,0 1.42837,2.19921 0.75614,3.45529 -0.30141,0.56319 -0.54802,2.15104 -0.54802,3.52855 0,1.37751 -0.32473,4.17668 -0.72163,6.22039 -0.39689,2.0437 -0.97757,6.3296 -1.2904,9.5242 -0.79648,8.13364 -1.52078,13.04853 -2.27019,15.40483 -0.35341,1.11117 -1.04257,3.27037 -1.53149,4.79822 -0.48891,1.52786 -1.53417,3.8514 -2.3228,5.16344 -0.78863,1.31203 -1.58472,3.01666 -1.76909,3.78807 -0.18437,0.7714 -0.57911,1.7109 -0.8772,2.08777 -0.80268,1.01481 -1.74105,2.67656 -2.36529,4.18868 -0.6543,1.58492 -2.42599,2.24428 -2.87642,1.0705 z"
         style="fill:#000000;fill-opacity:1;stroke:#000000;stroke-width:0.50507629;stroke-miterlimit:4;stroke-dasharray:none;stroke-dashoffset:0;stroke-opacity:1" />
      <path
         transform="translate(0,52.362161)"
         inkscape:connector-curvature="0"
         id="path4296"
         d="m -493.63918,937.91329 c -0.9142,-0.2166 -2.06852,-0.76155 -2.56515,-1.21099 -0.49663,-0.44944 -1.15272,-0.81718 -1.45797,-0.81718 -0.95057,0 -4.16368,-5.82056 -4.16368,-7.54251 0,-0.88109 -0.37198,-3.23744 -0.82662,-5.23633 -0.89886,-3.952 -0.7382,-12.46556 0.28608,-15.15963 0.2973,-0.78194 0.55044,-3.05472 0.56253,-5.05063 0.0121,-1.99591 0.25056,-4.6517 0.52991,-5.90177 1.13226,-5.06671 2.00934,-10.0845 2.50309,-14.32019 0.28666,-2.45916 0.84967,-5.41386 1.25113,-6.56599 0.40147,-1.15213 0.74322,-2.89028 0.75946,-3.86256 0.0162,-0.97227 0.35705,-2.6769 0.75736,-3.78807 0.40031,-1.11117 0.73126,-2.90454 0.73544,-3.98529 0.004,-1.08074 0.49451,-3.01266 1.0896,-4.29315 0.5951,-1.28048 1.42387,-3.12365 1.84173,-4.09593 0.41786,-0.97227 0.93944,-2.10869 1.15908,-2.52538 0.21963,-0.41669 1.03071,-1.97398 1.80239,-3.46065 1.254,-2.41588 1.4522,-2.59288 1.86573,-1.66612 0.31428,0.70431 0.20133,1.83594 -0.35212,3.52804 -0.44815,1.37012 -0.9381,4.16543 -1.08879,6.21181 -0.25319,3.43833 -0.95442,8.2551 -2.30636,15.84251 -0.29698,1.66675 -0.73885,5.35221 -0.98194,8.18991 -0.24308,2.83769 -0.68148,5.60698 -0.97422,6.15397 -0.6871,1.28385 -0.68643,3.9365 10e-4,4.36141 0.52392,0.32382 8.05292,-6.86079 8.05292,-7.68459 0,-0.2316 0.73868,-1.1159 1.6415,-1.96511 1.71132,-1.60969 3.61401,-3.74017 7.44988,-8.34174 1.25006,-1.49961 3.01151,-3.42625 3.91434,-4.28144 0.90282,-0.85519 1.6415,-1.74187 1.6415,-1.97039 0,-0.22852 0.67406,-1.12152 1.49792,-1.98444 4.96613,-5.20161 8.09702,-8.68863 8.09772,-9.01883 4.4e-4,-0.20834 0.5122,-0.88776 1.13723,-1.50982 0.62503,-0.62206 2.67519,-2.95173 4.55591,-5.17704 1.88073,-2.2253 4.09696,-4.72786 4.92496,-5.56124 0.828,-0.83337 1.50525,-1.78401 1.505,-2.11253 -2.6e-4,-0.32852 0.40041,-0.72455 0.89038,-0.88006 0.48996,-0.15551 1.22864,-0.83246 1.6415,-1.50434 0.41286,-0.67188 2.228,-2.86211 4.03365,-4.86719 1.80565,-2.00509 3.8512,-4.2762 4.54568,-5.04692 0.69448,-0.77073 2.17183,-2.47787 3.283,-3.79364 1.11117,-1.31578 2.41805,-2.84985 2.90419,-3.40905 0.48613,-0.5592 0.88493,-1.15241 0.88622,-1.31825 0.002,-0.16584 0.68314,-1.02787 1.51523,-1.91563 0.83209,-0.88776 1.51289,-1.8032 1.51289,-2.03433 0,-0.23112 0.39775,-0.78726 0.88388,-1.23587 0.48614,-0.44861 1.67938,-1.97957 2.65165,-3.40215 0.97228,-1.42257 2.84737,-4.09023 4.16688,-5.92813 1.31951,-1.8379 2.39911,-3.65306 2.39911,-4.0337 0,-0.38064 0.22729,-0.69208 0.50508,-0.69208 0.61155,0 0.67757,3.13871 0.0802,3.81333 -0.23369,0.2639 -0.93542,2.03206 -1.55942,3.92924 -0.624,1.89718 -1.77343,4.39731 -2.5543,5.55584 -0.78086,1.15853 -1.96594,3.1292 -2.63351,4.37926 -1.15409,2.16111 -5.17184,7.97633 -6.63021,9.59645 -0.37508,0.41669 -1.23002,1.5413 -1.89986,2.49913 -0.66984,0.95783 -1.6996,2.32153 -2.28836,3.03046 -0.58876,0.70892 -2.38899,2.87993 -4.0005,4.82448 -1.61152,1.94454 -3.21886,3.87646 -3.57187,4.29315 -2.83059,3.34114 -4.32157,5.00604 -6.50945,7.26877 -1.38896,1.43647 -3.20723,3.4655 -4.04061,4.50895 -0.83337,1.04344 -2.83999,3.30919 -4.45914,5.03498 -1.61916,1.7258 -3.35002,3.77267 -3.84637,4.54862 -0.49634,0.77594 -2.23992,2.91679 -3.87461,4.75743 -3.53629,3.98183 -4.90017,5.54476 -8.06024,9.23658 -1.30779,1.52786 -3.87996,4.45557 -5.71593,6.50601 -5.64394,6.30326 -6.31942,8.14121 -2.99206,8.14121 0.90225,0 2.5572,0.31569 3.67765,0.70154 1.89652,0.6531 3.66759,1.06651 10.11842,2.36188 1.38896,0.27891 2.97995,0.71328 3.53553,0.96527 0.55558,0.25199 1.7626,0.60613 2.68227,0.78697 2.12534,0.41793 4.73126,-1.2114 7.44694,-4.65616 2.87045,-3.64107 3.64882,-4.20011 5.84797,-4.20011 1.74096,0 2.29547,-0.33549 4.66751,-2.82386 2.01698,-2.11591 2.99549,-2.78873 3.90302,-2.68372 2.09459,0.24237 3.37251,-0.52685 4.73355,-2.84928 1.24605,-2.12623 1.44134,-2.24975 3.55702,-2.24975 3.10216,0 3.77975,-1.38421 3.77975,-7.72148 0,-5.05154 0.22772,-5.68966 5.33874,-14.96012 0.67499,-1.22431 1.22725,-2.60522 1.22725,-3.06868 0,-0.88243 -1.99518,-3.03906 -2.81156,-3.03906 -0.94809,0 -5.26966,-4.49371 -5.26966,-5.47957 0,-0.55716 0.7955,-2.5392 1.76777,-4.40452 0.97227,-1.86532 1.76776,-3.60477 1.76776,-3.86544 0,-1.09136 3.69249,-5.94845 4.52217,-5.94845 1.44573,0 5.35226,3.31181 6.77973,5.7476 1.99929,3.41154 1.80404,5.41295 -1.11153,11.39354 -0.46555,0.95497 -1.64195,2.51068 -2.61422,3.45714 -1.74142,1.6952 -1.76848,1.786 -1.81528,6.09238 -0.0607,5.58822 -0.89369,11.82226 -1.96754,14.7256 -0.46236,1.25006 -0.99788,2.84105 -1.19005,3.53553 -0.40633,1.46848 -2.66364,5.24464 -4.97882,8.32888 -1.64125,2.18645 -5.21113,4.83478 -13.28274,9.85387 -2.45708,1.52785 -4.90046,3.17566 -5.42975,3.6618 -0.52928,0.48614 -1.2007,0.88388 -1.49206,0.88388 -0.29135,0 -0.81267,0.34093 -1.15849,0.75762 -0.34582,0.41669 -1.0058,0.75761 -1.46662,0.75761 -0.46081,0 -2.19444,1.38234 -3.85249,3.07187 -1.65806,1.68952 -3.96116,3.52369 -5.11802,4.07592 -1.95482,0.93315 -2.21165,0.94806 -3.63672,0.21113 -0.84334,-0.43611 -2.34501,-0.79293 -3.33703,-0.79293 -1.49794,0 -1.89667,0.23544 -2.35227,1.38896 -0.30173,0.76393 -0.7604,1.79799 -1.01926,2.29792 -0.25887,0.49993 -0.67172,1.86363 -0.91744,3.03046 -0.48973,2.32555 -1.52145,5.23001 -2.2786,6.41465 -0.26632,0.41668 -0.97241,2.153 -1.56909,3.85848 -0.59668,1.70547 -1.72654,3.97831 -2.51079,5.05076 -2.23263,3.05307 -5.41388,6.24304 -6.22598,6.24304 -0.40642,0 -1.09777,0.31532 -1.53634,0.70071 -0.69138,0.60756 -5.50327,1.9192 -6.50435,1.77298 -0.19467,-0.0284 -1.10193,-0.22892 -2.01613,-0.44552 z m 11.60202,-19.32703 c 5.2125,-2.09156 7.99638,-5.51755 7.98264,-9.8239 -0.009,-2.74104 -0.35323,-3.48446 -2.07061,-4.46849 -2.34582,-1.34413 -3.27218,-1.61855 -7.6413,-2.26362 -5.36779,-0.79252 -7.45558,-0.31522 -9.97039,2.27941 -1.63273,1.68456 -1.72943,1.97961 -1.70099,5.19029 0.0169,1.90949 0.33979,3.96568 0.73533,4.68296 2.93824,5.32816 6.91494,6.71074 12.66532,4.40335 z"
         style="fill:#000000;fill-opacity:1;stroke:#000000;stroke-width:0.50507629;stroke-miterlimit:4;stroke-dasharray:none;stroke-dashoffset:0;stroke-opacity:1" />
      <path
         transform="translate(0,52.362161)"
         inkscape:connector-curvature="0"
         id="path4298"
         d="m -452.59879,840.397 c -0.18144,-0.29358 -0.19353,-1.07708 -0.0269,-1.74112 0.28292,-1.12724 0.17221,-1.20212 -1.66874,-1.12871 -1.58204,0.0631 -2.376,-0.26664 -4.01687,-1.66814 -1.12481,-0.96073 -2.76695,-2.29863 -3.6492,-2.97312 -0.88225,-0.67448 -1.88527,-1.89506 -2.22893,-2.71239 l -0.62484,-1.48606 -0.56837,1.44971 c -0.3126,0.79734 -0.84898,1.90427 -1.19195,2.45986 -0.34297,0.55558 -1.12146,1.82694 -1.72999,2.82525 -0.60852,0.9983 -1.94123,2.21125 -2.96158,2.69543 -1.70928,0.81111 -1.92134,0.81611 -2.69672,0.0636 -1.47501,-1.43156 -3.25688,-2.80634 -3.63733,-2.80634 -0.70361,0 -4.52783,-4.16389 -4.52783,-4.93 0,-0.4238 0.83478,-2.49944 1.85506,-4.61253 1.02029,-2.1131 2.20839,-4.58067 2.64024,-5.48349 0.43185,-0.90283 0.93854,-1.6415 1.12599,-1.6415 0.18744,0 0.57955,-0.68485 0.87134,-1.52189 1.06798,-3.06362 3.49892,-2.62507 7.39538,1.33415 1.52873,1.55335 2.77951,3.05654 2.77951,3.34042 0,0.28389 0.48247,1.29681 1.07215,2.25094 l 1.07216,1.73479 1.18492,-1.92771 c 0.65171,-1.06024 1.19202,-2.30561 1.20069,-2.7675 0.009,-0.46189 0.75444,-1.97732 1.65726,-3.36762 0.90283,-1.3903 1.87709,-2.9182 2.16503,-3.39534 0.80879,-1.34021 2.44076,-0.53 6.03911,2.99821 4.33162,4.24718 5.16721,7.64106 2.96168,12.02934 -0.37702,0.75013 -0.68103,1.77291 -0.67559,2.27284 0.009,0.86824 3.79848,-2.88126 7.81879,-7.73722 2.08885,-2.52304 3.85306,-4.23326 4.3669,-4.23326 0.92492,0 0.35956,1.88989 -1.06338,3.55461 -0.82209,0.96178 -1.50394,1.92836 -1.51523,2.14795 -0.0267,0.52023 -2.18087,3.59135 -2.67218,3.80971 -0.20834,0.0926 -0.3788,0.38591 -0.3788,0.6518 0,0.80893 -2.09245,3.48355 -5.75934,7.36174 -3.55915,3.76425 -4.0343,4.08911 -4.61247,3.15361 z m -18.19327,-7.79997 c 0.41214,-1.48232 0.85938,-2.06313 1.67951,-2.18112 1.50686,-0.21679 2.80163,-2.06862 2.06605,-2.95493 -0.30091,-0.36257 -0.40374,-1.23037 -0.22854,-1.92846 0.28381,-1.13079 0.16324,-1.26925 -1.10527,-1.26925 -1.80402,0 -2.63602,-0.82896 -2.63602,-2.6264 0,-0.77782 -0.24223,-1.41421 -0.53828,-1.41421 -1.2694,0 -2.49218,1.12388 -2.49218,2.29061 0,0.9912 -0.25734,1.24492 -1.26269,1.24492 -0.69448,0 -1.26269,0.22729 -1.26269,0.50508 0,0.27779 -0.34093,0.50507 -0.75761,0.50507 -0.6103,0 -0.75762,0.78568 -0.75762,4.04061 0,3.25494 0.14732,4.04062 0.75762,4.04062 0.41668,0 0.75761,0.32511 0.75761,0.72248 0,0.79 1.44916,1.22098 3.74561,1.11393 1.26743,-0.0591 1.55109,-0.35033 2.0345,-2.08895 z m 17.4534,1.49937 c 0,-0.4254 0.33474,-0.90192 0.74388,-1.05891 0.40913,-0.157 0.89303,-1.11583 1.07534,-2.13073 0.4102,-2.28353 1.71729,-4.62319 2.58283,-4.62319 1.08504,0 0.72381,-1.74733 -0.47121,-2.27934 -0.61596,-0.27422 -1.24993,-1.06679 -1.40881,-1.76127 -0.22907,-1.00124 -0.6508,-1.29701 -2.0368,-1.42844 -0.96136,-0.0912 -2.14953,-0.52763 -2.64038,-0.96992 -0.82018,-0.73905 -0.96787,-0.72322 -1.82377,0.19549 -0.54695,0.58708 -1.08178,2.20384 -1.29587,3.91732 -0.3356,2.68609 -0.49667,2.97288 -2.0293,3.61325 -2.61179,1.09128 -2.66621,2.16195 -0.11929,2.34697 1.8922,0.13746 2.13726,0.30331 2.2799,1.54298 0.0879,0.76392 0.45042,1.38896 0.8056,1.38896 0.35518,0 1.05716,0.45456 1.55996,1.01015 1.08028,1.1937 2.77792,1.33834 2.77792,0.23668 z"
         style="fill:#000000;fill-opacity:1;stroke:#000000;stroke-width:0.50507629;stroke-miterlimit:4;stroke-dasharray:none;stroke-dashoffset:0;stroke-opacity:1" />
      <path
         transform="translate(0,52.362161)"
         inkscape:connector-curvature="0"
         id="path4300"
         d="m -452.83358,839.41556 c 0,-1.3158 -0.18281,-1.51548 -1.38896,-1.51712 -1.86975,-0.003 -4.12817,-1.45348 -7.76037,-4.98568 l -3.03001,-2.9466 -1.20596,2.37986 c -1.62993,3.21651 -3.45157,5.29269 -5.32447,6.06847 -1.39202,0.5766 -1.70187,0.52937 -2.91441,-0.44427 -0.74624,-0.5992 -2.17113,-1.63443 -3.16643,-2.3005 -2.33659,-1.56368 -4.50382,-4.15019 -4.50382,-5.37513 0,-1.33978 3.6833,-9.17653 5.84048,-12.42645 2.38495,-3.59308 3.66105,-3.63182 7.38937,-0.22434 1.48756,1.35954 3.0346,3.12099 3.43786,3.91434 0.40326,0.79334 1.05431,1.96208 1.44677,2.5972 l 0.71356,1.15477 0.85077,-1.40731 c 0.46792,-0.77401 1.1006,-2.12935 1.40596,-3.01185 1.04288,-3.01394 4.08254,-7.23428 5.21042,-7.23428 1.34591,0 6.84026,5.20892 8.10326,7.68229 1.15241,2.25681 1.22311,4.84499 0.19928,7.29536 -1.68618,4.03559 -0.50326,3.18541 5.90604,-4.24478 3.90081,-4.52213 5.45817,-5.60828 5.45817,-3.80668 0,1.4011 -8.28032,13.23675 -11.85043,16.93866 -3.64918,3.7839 -4.81708,4.24311 -4.81708,1.89404 z"
         style="fill:#000000;fill-opacity:1;stroke:#000000;stroke-width:0.50507629;stroke-miterlimit:4;stroke-dasharray:none;stroke-dashoffset:0;stroke-opacity:1" />
      <path
         transform="translate(0,52.362161)"
         inkscape:connector-curvature="0"
         id="path4302"
         d="m -465.20795,815.58143 c -1.9664,-1.10938 -6.77288,-5.53094 -7.08646,-6.51893 -0.18697,-0.5891 0.11495,-1.83286 0.73255,-3.01775 0.57783,-1.1086 1.05061,-2.27797 1.05061,-2.5986 0,-0.75432 3.394,-7.31555 4.69421,-9.07478 0.78532,-1.06258 1.1412,-1.22612 1.64863,-0.75762 0.35592,0.32862 1.25374,1.05205 1.99516,1.60763 3.0824,2.30979 4.70303,4.45149 5.03287,6.65107 0.68307,4.55502 -0.84019,9.11257 -4.27439,12.7889 -1.5312,1.63915 -2.22173,1.80665 -3.79318,0.92008 z"
         style="fill:#000000;fill-opacity:1;stroke:#000000;stroke-width:0.50507629;stroke-miterlimit:4;stroke-dasharray:none;stroke-dashoffset:0;stroke-opacity:1" />
      <path
         transform="translate(0,52.362161)"
         inkscape:connector-curvature="0"
         id="path4304"
         d="m -527.63939,937.58095 c -2.5341,-1.02415 -3.23885,-2.62324 -3.17509,-7.20422 0.0489,-3.51415 0.59136,-5.55992 2.15535,-8.12866 0.53781,-0.88333 1.51621,-3.12086 2.35158,-5.37791 0.39785,-1.07492 0.42693,-1.87842 0.0898,-2.48085 -0.49188,-0.87894 -0.34114,-1.33628 1.95972,-5.9455 0.39258,-0.78644 0.71378,-1.64682 0.71378,-1.91195 0,-0.26513 1.04404,-2.65736 2.32009,-5.31606 2.2778,-4.74588 2.34765,-4.82848 3.83209,-4.5316 2.39936,0.47988 5.53588,2.89134 6.97266,5.36081 2.13791,3.67457 2.73359,7.38984 2.01126,12.54424 -0.33728,2.4067 -0.92618,4.98956 -1.30867,5.7397 -0.3825,0.75013 -0.69545,1.92996 -0.69545,2.62184 0,0.69188 -0.19773,1.38017 -0.4394,1.52953 -0.24168,0.14936 -1.09332,1.5833 -1.89255,3.18654 -0.79922,1.60323 -2.07943,3.59682 -2.84491,4.43019 -0.76547,0.83338 -1.50425,1.86294 -1.64173,2.28791 -0.13748,0.42497 -0.87556,1.05454 -1.64018,1.39904 -0.76462,0.3445 -1.95843,0.93441 -2.65291,1.31091 -2.03845,1.1051 -4.1654,1.27414 -6.11543,0.48604 z m 9.14589,-10.24009 c 4.29233,-3.0271 2.09324,-9.63848 -3.20597,-9.63848 -1.56968,0 -1.92747,0.27518 -3.33765,2.56703 -2.14059,3.47888 -2.37689,4.95307 -1.06193,6.62477 1.63377,2.07701 5.01243,2.27543 7.60555,0.44668 z"
         style="fill:#000000;fill-opacity:1;stroke:#000000;stroke-width:0.50507629;stroke-miterlimit:4;stroke-dasharray:none;stroke-dashoffset:0;stroke-opacity:1" />
      <path
         transform="translate(0,52.362161)"
         inkscape:connector-curvature="0"
         id="path4306"
         d="m -600.77884,940.23419 c 1.41554,-1.32256 5.18429,-3.84399 5.74556,-3.84399 0.40048,0 0.9099,-0.2841 1.13205,-0.63134 0.22215,-0.34724 1.54033,-1.19956 2.92929,-1.89404 1.38895,-0.69448 3.35358,-1.88772 4.36583,-2.65165 1.01224,-0.76393 2.05707,-1.38896 2.32183,-1.38896 0.26476,0 0.94952,-0.39775 1.5217,-0.88388 0.57218,-0.48614 1.55872,-1.22481 2.19231,-1.6415 4.58244,-3.01371 10.18506,-9.67364 9.31803,-11.07652 -0.18364,-0.29713 -1.67076,-0.54024 -3.30473,-0.54024 -1.63396,0 -3.09286,-0.19743 -3.24199,-0.43873 -0.14913,-0.2413 -1.12851,-0.57687 -2.17638,-0.74571 -1.62275,-0.26145 -2.08473,-0.64685 -3.1159,-2.59938 -1.1886,-2.25062 -1.19551,-2.33938 -0.37881,-4.86813 0.45752,-1.41665 0.83186,-3.10442 0.83186,-3.75061 0,-0.64618 0.23664,-1.32113 0.52587,-1.49988 0.28923,-0.17876 1.18998,-1.72634 2.00166,-3.43908 0.81169,-1.71273 2.45014,-4.21605 3.64101,-5.56293 1.90358,-2.15294 2.4643,-2.48233 4.64026,-2.72589 3.53095,-0.39522 6.26356,1.1741 8.16496,4.68911 1.3237,2.44702 1.5196,2.60383 2.71689,2.17474 2.22688,-0.79808 3.05809,-3.3292 3.05809,-9.3122 0,-4.46522 0.17461,-5.64566 1.0989,-7.42912 2.18052,-4.20743 2.43663,-4.81688 2.43663,-5.79826 0,-0.54815 0.34093,-1.27959 0.75762,-1.62541 0.41669,-0.34582 0.75761,-1.04209 0.75761,-1.54726 0,-0.50518 0.22111,-1.05516 0.49135,-1.22218 0.27025,-0.16702 0.73358,-1.20321 1.02963,-2.30265 0.33918,-1.25965 0.83387,-1.99898 1.3375,-1.99898 1.20845,0 0.79067,21.15644 -0.46728,23.66316 -0.4671,0.93079 -1.00222,2.52178 -1.18917,3.53553 -0.34347,1.86257 -1.1637,3.62209 -2.97827,6.38888 -1.45061,2.21185 -1.5415,2.33143 -3.50171,4.60691 -0.98621,1.14483 -1.79311,2.44042 -1.79311,2.87909 0,0.43866 -0.29657,0.97933 -0.65905,1.20147 -0.96056,0.5887 -2.87384,3.90204 -2.89255,5.00921 -0.009,0.5228 -0.34976,1.39173 -0.75762,1.93096 -0.40785,0.53923 -0.74155,1.36371 -0.74155,1.83219 0,0.46847 -0.34092,1.13471 -0.75761,1.48054 -0.41669,0.34582 -0.75762,1.0738 -0.75762,1.61774 0,0.54395 -0.76731,2.16393 -1.70513,3.59996 -0.93782,1.43604 -1.79014,2.87244 -1.89403,3.192 -0.749,2.30377 -9.56198,9.26796 -11.72833,9.26796 -0.44037,0 -1.54706,0.30976 -2.45931,0.68835 -3.14058,1.30338 -6.99321,2.39341 -9.51485,2.69206 -1.39004,0.16463 -2.64777,0.49417 -2.79494,0.7323 -0.14718,0.23814 -1.2012,0.43298 -2.34227,0.43298 -1.14108,0 -1.97998,-0.0885 -1.86423,-0.19662 z"
         style="fill:#000000;fill-opacity:1;stroke:#000000;stroke-width:0.50507629;stroke-miterlimit:4;stroke-dasharray:none;stroke-dashoffset:0;stroke-opacity:1" />
      <path
         transform="translate(0,52.362161)"
         inkscape:connector-curvature="0"
         id="path4308"
         d="m -555.11153,962.35048 c -0.55558,-0.69692 -1.57836,-1.58196 -2.27284,-1.96676 -2.5353,-1.40476 -5.05077,-4.10034 -5.05077,-5.41241 0,-1.36105 1.75525,-5.73077 2.48251,-6.18024 0.23839,-0.14734 0.57909,-1.00907 0.7571,-1.91496 0.17801,-0.90589 0.99927,-2.53988 1.82502,-3.63108 0.82575,-1.09121 1.50137,-2.18031 1.50137,-2.42024 0,-0.23992 0.43237,-0.90032 0.96083,-1.46755 l 0.96083,-1.03134 2.63044,1.80943 c 1.44674,0.99518 3.39864,2.77567 4.33756,3.95664 1.57705,1.9836 1.70751,2.42135 1.71204,5.74482 0.006,4.53127 -1.71248,8.62058 -5.08578,12.10095 -1.97224,2.03482 -3.36863,2.15595 -4.75831,0.41274 z"
         style="fill:#000000;fill-opacity:1;stroke:#000000;stroke-width:0.50507629;stroke-miterlimit:4;stroke-dasharray:none;stroke-dashoffset:0;stroke-opacity:1" />
      <path
         transform="translate(0,52.362161)"
         inkscape:connector-curvature="0"
         id="path4310"
         d="m -691.48212,979.24441 c -7.60487,-1.4317 -9.81473,-2.30488 -12.87945,-5.08907 -1.80311,-1.63806 -5.05076,-6.69417 -5.05076,-7.86328 0,-0.54403 -0.39031,-1.86922 -0.86735,-2.94487 -0.69276,-1.56204 -0.86436,-3.42989 -0.85249,-9.27932 0.009,-4.33619 0.26297,-8.05804 0.6231,-9.12407 0.33453,-0.99025 0.80619,-3.2631 1.04813,-5.05076 0.24194,-1.78767 0.93979,-4.50036 1.55078,-6.02822 0.611,-1.52786 1.32132,-3.63792 1.57851,-4.68902 0.25719,-1.05111 0.67374,-2.30118 0.92568,-2.77792 1.6297,-3.08394 2.55963,-5.32041 2.55963,-6.15587 0,-0.53063 0.20747,-1.09301 0.46105,-1.24973 0.25357,-0.15672 2.30529,-3.97714 4.55937,-8.48983 6.3484,-12.70957 8.28707,-16.02643 8.96883,-15.34467 0.55732,0.55732 0.15791,3.89722 -0.65375,5.46681 -0.38973,0.75364 -0.70859,1.82482 -0.70859,2.3804 0,0.55557 -0.29617,1.19189 -0.65815,1.41404 -0.36199,0.22215 -1.07522,1.54033 -1.58497,2.92929 -0.50975,1.38896 -1.69093,4.17817 -2.62485,6.19826 -0.93391,2.02008 -1.69802,3.91693 -1.69802,4.21522 0,0.29828 -0.32024,1.14562 -0.71164,1.88296 -1.40536,2.6475 -2.8239,6.60286 -2.8239,7.87397 0,0.71243 -0.22295,1.29533 -0.49545,1.29533 -0.2725,0 -0.64047,0.62503 -0.8177,1.38896 -0.17724,0.76392 -0.61255,1.85635 -0.96737,2.42762 -0.35481,0.57126 -0.79088,2.38953 -0.96904,4.04061 -0.91401,8.47042 -0.0541,13.03498 3.06157,16.25118 0.33158,0.34228 0.67999,0.79854 0.77424,1.01391 0.38677,0.88379 4.3757,3.62436 5.75724,3.95547 0.81686,0.19578 1.74996,0.56368 2.07356,0.81757 1.65194,1.29604 16.48106,1.24298 18.06458,-0.0646 0.29697,-0.24523 1.44909,-0.60949 2.56026,-0.80946 1.11117,-0.19998 2.32865,-0.6092 2.70552,-0.90937 0.75515,-0.60147 2.43228,-1.6095 3.60793,-2.16852 0.41669,-0.19814 2.04893,-1.34477 3.62721,-2.54809 2.91523,-2.22265 7.98955,-9.01732 7.98955,-10.69828 0,-0.4705 0.36066,-1.37037 0.80147,-1.99971 0.72384,-1.03343 0.72604,-1.25938 0.0227,-2.33281 -0.7965,-1.21561 -4.51259,-4.39292 -5.87493,-5.02314 -2.51069,-1.16145 -4.30234,-2.71999 -5.70767,-4.96504 -1.05984,-1.69312 -1.15899,-6.98127 -0.16698,-8.90495 0.91193,-1.76836 4.2122,-8.70961 4.59977,-9.67437 0.39333,-0.97912 1.41948,-2.73591 2.10741,-3.60794 0.29731,-0.37687 0.68489,-1.44583 0.8613,-2.37547 0.1764,-0.92964 1.00388,-2.70249 1.83883,-3.93966 0.83496,-1.23718 1.51811,-2.64201 1.51811,-3.12186 0,-0.47984 0.31277,-1.32076 0.69506,-1.86871 1.21738,-1.74491 1.84445,-6.27944 2.30299,-16.65363 0.32191,-7.28297 0.67057,-10.62548 1.2496,-11.97934 0.44171,-1.0328 0.80311,-2.40787 0.80311,-3.05571 0,-0.64785 0.24527,-1.42317 0.54505,-1.72295 0.29977,-0.29978 0.76065,-1.50462 1.02416,-2.67742 0.26351,-1.17281 1.12274,-3.52994 1.9094,-5.23808 0.78666,-1.70813 1.84687,-4.07165 2.35603,-5.25227 0.90447,-2.09724 1.7045,-2.77885 1.77846,-1.51523 0.19189,3.27834 -0.20448,8.63889 -0.77494,10.48033 -1.64516,5.31057 -2.98419,22.01939 -1.87516,23.39883 0.26191,0.32576 0.63414,1.33097 0.82718,2.23379 0.19305,0.90283 0.56584,1.6415 0.82844,1.6415 0.2626,0 0.69766,0.57921 0.96681,1.28712 0.28803,0.75757 1.23761,1.59976 2.30805,2.04702 2.20184,0.91998 5.75347,0.74943 6.32401,-0.30368 1.58068,-2.91765 3.4805,-7.32329 3.4805,-8.07121 0,-0.49306 0.34093,-1.17942 0.75762,-1.52524 0.41669,-0.34582 0.75761,-1.02767 0.75761,-1.51523 0,-0.48755 0.34093,-1.16941 0.75762,-1.51523 0.41668,-0.34582 0.75761,-1.05783 0.75761,-1.58225 0,-1.48752 5.22606,-8.51927 6.3316,-8.51927 0.22406,0 0.76621,-0.3034 1.20477,-0.67422 0.43857,-0.37082 2.07399,-0.96806 3.63428,-1.32721 2.39502,-0.55129 3.18171,-0.53831 5.05076,0.0834 3.74079,1.24424 4.60921,4.76943 1.65223,6.70691 -1.06417,0.69727 -1.57659,0.76035 -2.55508,0.31452 -1.86919,-0.85166 -7.48779,-0.71545 -8.24749,0.19994 -0.34582,0.41669 -0.90142,0.75761 -1.23465,0.75761 -0.78195,0 -3.96952,3.77838 -4.39711,5.21211 -0.81202,2.72272 -0.45513,4.26969 1.46488,6.34966 3.53169,3.82593 7.83261,3.4785 11.94372,-0.96482 1.00078,-1.08166 1.81961,-2.07879 1.81961,-2.21587 0,-0.2283 1.63072,-2.60936 4.35545,-6.3595 1.93509,-2.66332 2.3616,-0.1506 0.6533,3.84886 -1.9116,4.47545 -4.93963,10.23369 -6.20895,11.80723 -0.33612,0.41669 -0.94226,1.41916 -1.34697,2.22772 -0.7778,1.55395 -7.16762,9.00582 -9.05193,10.55645 -2.65821,2.18748 -6.00305,4.38843 -6.66922,4.38843 -0.3974,0 -0.98162,0.25906 -1.29825,0.5757 -0.70835,0.70835 -5.22982,1.61048 -7.96009,1.58821 -4.74614,-0.0387 -7.78579,-1.43056 -11.11168,-5.08802 -1.9862,-2.18423 -2.03773,-2.206 -3.05289,-1.29031 -1.56351,1.41032 -3.21927,4.5359 -3.57225,6.74337 -0.34343,2.14765 -0.63425,1.7454 5.04828,6.98253 1.30568,1.20334 2.94797,3.09718 3.64955,4.20856 1.18127,1.87125 1.26175,2.38179 1.08828,6.90349 -0.10303,2.68555 -0.43721,5.56467 -0.74261,6.39805 -1.39712,3.81247 -1.79848,5.22427 -2.16689,7.62204 -0.21728,1.4142 -0.62857,3.00519 -0.91398,3.53553 -1.71959,3.19535 -2.62048,5.44223 -2.62048,6.53565 0,0.68593 -0.17981,1.24714 -0.39956,1.24714 -0.21976,0 -1.05253,1.30688 -1.85059,2.90419 -0.79807,1.5973 -2.06259,3.69968 -2.81006,4.67195 -0.74746,0.97227 -1.44887,2.04516 -1.55867,2.38418 -0.66446,2.05151 -10.82686,12.11808 -13.533,13.40538 -0.44484,0.21161 -1.49064,0.83423 -2.32402,1.3836 -2.74711,1.81093 -6.03624,2.94852 -10.31957,3.56916 -1.54682,0.22412 -3.38062,0.51135 -4.0751,0.63827 -0.69448,0.12692 -2.39911,0.0168 -3.78807,-0.24466 z"
         style="fill:#000000;fill-opacity:1;stroke:#000000;stroke-width:0.50507629;stroke-miterlimit:4;stroke-dasharray:none;stroke-dashoffset:0;stroke-opacity:1" />
      <path
         transform="translate(0,52.362161)"
         inkscape:connector-curvature="0"
         id="path4312"
         d="m -907.36462,932.81303 c -5.83691,-3.13072 -8.02434,-9.7127 -7.43162,-22.36181 0.4183,-8.92705 2.44256,-27.38424 3.33153,-30.37702 0.24754,-0.83338 0.71175,-3.10622 1.03156,-5.05077 1.07117,-6.51307 1.34469,-7.77126 1.83326,-8.43314 0.26722,-0.36203 1.0148,-2.02193 1.66127,-3.68869 1.96957,-5.078 3.42128,-7.98418 3.73484,-7.47682 0.16392,0.26522 -0.0405,3.30607 -0.45434,6.75744 -0.4138,3.45137 -0.94328,7.89997 -1.17661,9.88578 -0.23333,1.9858 -0.58056,3.8635 -0.77163,4.17265 -0.52224,0.845 -1.93063,15.6094 -2.15811,22.6237 -0.16648,5.13355 -0.0281,6.74013 0.82849,9.61629 1.70452,5.72345 5.08433,8.30778 10.94279,8.36726 3.75171,0.0381 6.62101,-1.30122 9.25692,-4.32087 5.6539,-6.477 8.39672,-7.95093 11.85967,-6.3731 1.05612,0.4812 1.64866,0.3702 3.68557,-0.69041 1.33493,-0.69508 2.67215,-1.74213 2.97162,-2.32677 0.29947,-0.58464 1.71999,-2.30591 3.15672,-3.82505 1.43674,-1.51913 2.61265,-2.94613 2.61315,-3.1711 5e-4,-0.22497 1.05017,-1.07195 2.3326,-1.88218 2.71821,-1.71733 5.28893,-1.88769 8.77818,-0.58169 1.25006,0.4679 3.5229,1.05033 5.05076,1.29431 2.54963,0.40714 6.23782,1.18849 12.12183,2.56804 3.3161,0.77749 31.79725,1.14899 40.4061,0.52704 7.15394,-0.51682 13.11656,-1.42511 16.66418,-2.53845 0.97044,-0.30455 2.84094,-0.55372 4.15666,-0.55372 1.31573,0 3.24914,-0.3119 4.29648,-0.69311 3.06118,-1.11421 10.25873,-3.21833 13.26848,-3.87888 1.52785,-0.33532 3.34613,-0.91334 4.04061,-1.28449 0.69448,-0.37115 2.83608,-1.14191 4.7591,-1.71281 1.92304,-0.57089 3.74131,-1.22282 4.04061,-1.44873 0.29931,-0.22592 2.03522,-0.90226 3.85758,-1.50298 1.82236,-0.60073 4.64818,-1.77488 6.27962,-2.60922 1.63143,-0.83435 3.28732,-1.517 3.67976,-1.517 0.78089,0 3.2115,-1.26267 5.10437,-2.65165 0.66249,-0.48613 1.68527,-0.89374 2.27284,-0.90579 0.58757,-0.012 1.97745,-0.57871 3.08861,-1.25925 1.11117,-0.68055 2.36124,-1.36894 2.77792,-1.52977 0.41669,-0.16083 1.09854,-0.49991 1.51523,-0.75351 0.41669,-0.25361 1.46855,-0.78223 2.33746,-1.17472 0.86891,-0.39248 1.73464,-0.96408 1.92384,-1.27022 0.1892,-0.30614 0.88751,-0.55661 1.55179,-0.55661 0.66428,0 1.38954,-0.28649 1.61169,-0.63663 0.22215,-0.35015 1.67415,-1.26785 3.22667,-2.03933 2.34896,-1.16725 7.29395,-4.164 10.56176,-6.40061 0.41668,-0.2852 2.23496,-1.53813 4.04061,-2.7843 1.80564,-1.24616 3.83038,-2.50459 4.49941,-2.7965 0.66902,-0.29191 1.98382,-1.20453 2.92176,-2.02806 0.93794,-0.82352 1.91333,-1.49732 2.16753,-1.49732 0.2542,0 1.4725,-0.68185 2.70732,-1.51523 1.23483,-0.83337 2.45213,-1.51522 2.70512,-1.51522 0.25298,0 1.2428,-0.59232 2.19959,-1.31627 0.95679,-0.72395 2.42148,-1.64072 3.25486,-2.03727 0.83337,-0.39656 2.51693,-1.28158 3.74124,-1.96673 1.22431,-0.68515 2.44948,-1.24573 2.7226,-1.24573 0.27312,0 1.43061,-0.42556 2.57221,-0.9457 6.52629,-2.97354 9.21242,-3.66435 9.66476,-2.48556 0.15191,0.39587 -0.0716,1.38667 -0.49663,2.20178 -0.42506,0.81511 -0.77423,1.7236 -0.77594,2.01887 -0.002,0.29527 -0.68497,1.19011 -1.51834,1.98853 -0.83338,0.79843 -1.51523,1.65794 -1.51523,1.91003 0,1.07551 -4.40537,4.96349 -6.53487,5.76738 -1.26718,0.47836 -2.87218,1.16126 -3.56666,1.51755 -0.69448,0.3563 -1.57065,0.64921 -1.94706,0.65092 -0.37639,0.002 -1.69467,0.68496 -2.9295,1.51834 -1.23483,0.83338 -2.38081,1.51523 -2.54661,1.51523 -0.16581,0 -1.27227,0.79549 -2.4588,1.76777 -1.18653,0.97227 -2.42044,1.76776 -2.74203,1.76776 -0.32159,0 -1.87433,0.99062 -3.45053,2.20138 -1.57621,1.21076 -3.35622,2.35583 -3.95559,2.54461 -0.59937,0.18877 -1.21727,0.6755 -1.3731,1.08162 -0.15585,0.40611 -0.52698,0.73838 -0.82473,0.73838 -0.60988,0 -3.69267,2.06854 -3.95183,2.65165 -0.0926,0.20835 -0.45645,0.37881 -0.80856,0.37881 -0.35212,0 -2.09928,1.10455 -3.88259,2.45455 -1.78331,1.35 -3.74913,2.61538 -4.36848,2.81196 -0.61934,0.19657 -1.12608,0.5173 -1.12608,0.71272 0,0.19543 -1.0796,0.91879 -2.39911,1.60746 -1.31951,0.68868 -3.39775,1.99082 -4.61832,2.89364 -1.22056,0.90283 -2.43792,1.6415 -2.70524,1.6415 -0.26731,0 -1.34694,0.68186 -2.39916,1.51523 -1.05222,0.83338 -2.23271,1.51523 -2.62331,1.51523 -0.39061,0 -0.9638,0.25361 -1.27377,0.56357 -0.59223,0.59224 -2.06959,1.49446 -4.18414,2.55527 -0.69448,0.3484 -2.17183,1.2017 -3.28299,1.89622 -1.11117,0.69453 -3.15168,1.79571 -4.53446,2.44707 -1.38279,0.65136 -2.63285,1.3532 -2.77792,1.55964 -0.14508,0.20644 -1.51383,0.89978 -3.04169,1.54075 -1.52785,0.64098 -3.13674,1.48133 -3.5753,1.86744 -0.43856,0.38611 -1.05861,0.70202 -1.37789,0.70202 -0.59344,0 -7.35513,2.98483 -9.77195,4.31366 -0.73734,0.40541 -1.79852,0.73711 -2.35818,0.73711 -0.96716,0 -1.63862,0.26574 -5.55977,2.20037 -0.92534,0.45654 -2.25469,0.83008 -2.95413,0.83008 -0.69943,0 -1.9879,0.31646 -2.86326,0.70323 -2.91991,1.29017 -6.61608,2.41566 -9.1677,2.7916 -1.38896,0.20465 -3.54816,0.65847 -4.79823,1.00849 -6.2065,1.73788 -7.54857,2.03747 -10.35406,2.31134 -1.66675,0.16271 -5.41694,0.63448 -8.33376,1.04838 -4.98792,0.70779 -18.32098,1.79546 -22.22335,1.81291 -0.97228,0.005 -4.15426,-0.11436 -7.07107,-0.26379 -2.91682,-0.14944 -8.37164,-0.41295 -12.12183,-0.58558 -3.75019,-0.17263 -7.84131,-0.52733 -9.09137,-0.78822 -1.25007,-0.2609 -3.58852,-0.68289 -5.19657,-0.93776 -2.84964,-0.45166 -7.1377,-2.17786 -7.70989,-3.10369 -0.15683,-0.25376 -0.67075,-0.46137 -1.14205,-0.46137 -0.4713,0 -1.52018,-0.7955 -2.33085,-1.76777 -2.15989,-2.59045 -3.78281,-2.42549 -6.21106,0.63135 -4.55562,5.73488 -4.47015,5.67675 -8.42899,5.73245 -1.96808,0.0277 -4.07139,0.19815 -4.67403,0.37881 -1.5658,0.46938 -8.2482,6.95953 -8.2482,8.01091 0,0.46047 -0.14206,0.66452 -3.4858,5.00695 -2.58742,3.36021 -5.40445,4.7569 -9.42684,4.67384 -1.8388,-0.038 -3.66598,-0.42058 -4.72742,-0.9899 z"
         style="fill:#000000;fill-opacity:1;stroke:#000000;stroke-width:0.50507629;stroke-miterlimit:4;stroke-dasharray:none;stroke-dashoffset:0;stroke-opacity:1" />
      <path
         transform="translate(0,52.362161)"
         inkscape:connector-curvature="0"
         id="path4314"
         d="m -894.46897,833.86164 c -0.80378,-0.51392 -1.59928,-1.12234 -1.76777,-1.35204 -0.16849,-0.22971 -1.38621,-1.2854 -2.70604,-2.34598 -3.43611,-2.76115 -3.59044,-3.24551 -1.84824,-5.80055 0.8085,-1.18574 1.47001,-2.62949 1.47001,-3.20835 0,-0.57885 0.74289,-2.33226 1.65088,-3.89645 0.90798,-1.56419 2.02885,-3.52584 2.49082,-4.35922 1.15229,-2.07867 2.01474,-2.10848 4.60111,-0.15902 5.07226,3.82317 6.81484,8.06254 5.15182,12.53339 -0.46499,1.25006 -0.97131,2.80709 -1.12517,3.46006 -0.36812,1.56234 -4.61268,6.14671 -5.64735,6.09947 -0.44476,-0.0203 -1.46629,-0.4574 -2.27007,-0.97131 z"
         style="fill:#000000;fill-opacity:1;stroke:#000000;stroke-width:0.50507629;stroke-miterlimit:4;stroke-dasharray:none;stroke-dashoffset:0;stroke-opacity:1" />
      <path
         transform="translate(0,52.362161)"
         inkscape:connector-curvature="0"
         id="path4316"
         d="m -867.85491,963.01247 c -0.22215,-0.35852 -1.81584,-1.749 -3.54153,-3.08996 -1.72569,-1.34096 -3.50498,-2.99876 -3.95397,-3.684 -0.744,-1.13549 -0.74569,-1.32398 -0.0191,-2.12685 0.43848,-0.48452 0.8071,-1.31762 0.81914,-1.85133 0.0121,-0.53371 0.57784,-1.87952 1.25732,-2.99068 0.67947,-1.11117 1.47114,-2.58852 1.75925,-3.283 1.05881,-2.55218 2.29159,-4.62647 3.3322,-5.6068 l 1.06738,-1.00554 2.46816,1.86163 c 4.75669,3.58779 6.25623,5.97448 6.25623,9.95755 0,1.54812 -0.19773,2.93697 -0.43941,3.08633 -0.24167,0.14936 -1.09398,1.57627 -1.89403,3.1709 -2.46055,4.90428 -5.86788,7.56903 -7.11164,5.56175 z"
         style="fill:#000000;fill-opacity:1;stroke:#000000;stroke-width:0.50507629;stroke-miterlimit:4;stroke-dasharray:none;stroke-dashoffset:0;stroke-opacity:1" />
      <path
         transform="translate(0,52.362161)"
         inkscape:connector-curvature="0"
         id="path4318"
         d="m -852.09638,959.64597 c -5.17819,-4.26179 -5.2145,-4.31183 -4.79469,-6.60757 0.20416,-1.11648 0.70644,-2.42119 1.11618,-2.89936 0.63301,-0.73872 1.81802,-3.08459 3.11814,-6.17269 0.17543,-0.41669 0.77367,-1.43947 1.32943,-2.27285 0.55576,-0.83337 1.14798,-1.91297 1.31604,-2.39911 0.41842,-1.21036 1.10451,-1.11146 3.51909,0.50724 3.22589,2.16259 5.66294,5.12574 6.0371,7.34036 0.60299,3.5691 -0.66474,8.71766 -2.67618,10.86859 -0.34724,0.37132 -0.63135,0.95708 -0.63135,1.30168 0,0.9208 -2.80603,2.83754 -4.14643,2.83234 -0.63628,-0.002 -2.52058,-1.12685 -4.18733,-2.49863 z"
         style="fill:#000000;fill-opacity:1;stroke:#000000;stroke-width:0.50507629;stroke-miterlimit:4;stroke-dasharray:none;stroke-dashoffset:0;stroke-opacity:1" />
    </g>
  </g>
</svg>
