<?xml version="1.0" encoding="UTF-8" standalone="no"?>
<!-- Created with Inkscape (http://www.inkscape.org/) -->

<svg
   xmlns:dc="http://purl.org/dc/elements/1.1/"
   xmlns:cc="http://creativecommons.org/ns#"
   xmlns:rdf="http://www.w3.org/1999/02/22-rdf-syntax-ns#"
   xmlns:svg="http://www.w3.org/2000/svg"
   xmlns="http://www.w3.org/2000/svg"
   xmlns:sodipodi="http://sodipodi.sourceforge.net/DTD/sodipodi-0.dtd"
   xmlns:inkscape="http://www.inkscape.org/namespaces/inkscape"
   width="256"
   height="256"
   viewBox="0 0 67.733332 67.733331"
   version="1.1"
   id="svg8"
   inkscape:version="0.92.3 (2405546, 2018-03-11)"
   sodipodi:docname="HUT.svg">
  <defs
     id="defs2" />
  <sodipodi:namedview
     id="base"
     pagecolor="#ffffff"
     bordercolor="#666666"
     borderopacity="1.0"
     inkscape:pageopacity="0.0"
     inkscape:pageshadow="2"
     inkscape:zoom="1.4"
     inkscape:cx="172.6913"
     inkscape:cy="117.74691"
     inkscape:document-units="mm"
     inkscape:current-layer="layer1"
     showgrid="false"
     inkscape:window-width="1366"
     inkscape:window-height="729"
     inkscape:window-x="0"
     inkscape:window-y="0"
     inkscape:window-maximized="1"
     units="px" />
  <metadata
     id="metadata5">
    <rdf:RDF>
      <cc:Work
         rdf:about="">
        <dc:format>image/svg+xml</dc:format>
        <dc:type
           rdf:resource="http://purl.org/dc/dcmitype/StillImage" />
        <dc:title></dc:title>
      </cc:Work>
    </rdf:RDF>
  </metadata>
  <g
     inkscape:label="Layer 1"
     inkscape:groupmode="layer"
     id="layer1"
     transform="translate(0,-229.26667)">
    <path
       style="fill:#000000;stroke-width:0.08298153"
       d="m 21.931979,286.76469 c -0.445925,-0.0533 -0.435326,-0.0568 0.461656,-0.15439 0.504931,-0.0549 1.206135,-0.1913 1.558228,-0.3031 2.046621,-0.64993 3.602396,-2.4149 4.435881,-5.03238 0.571973,-1.79622 0.543584,-1.39143 0.593644,-8.4641 l 0.04557,-6.43108 1.814217,-0.0224 1.814228,-0.0224 -0.04737,5.00129 c -0.03455,3.65357 -0.08158,5.31433 -0.174613,6.16302 -0.247267,2.2567 -0.544967,3.39369 -1.227594,4.68845 -0.572738,1.08632 -1.025752,1.70139 -1.747705,2.37288 -1.523572,1.41713 -3.511162,2.14593 -6.073943,2.22718 -0.547668,0.0173 -1.201151,0.006 -1.452177,-0.0229 z m 21.118803,-0.0265 c -2.615486,-0.2947 -4.774325,-1.45819 -6.056716,-3.26425 -0.923323,-1.30037 -1.508359,-2.75332 -1.787605,-4.43952 -0.283814,-1.71378 -0.337252,-2.79548 -0.384556,-7.78399 l -0.04669,-4.92114 1.869655,0.0252 1.869668,0.0252 0.262537,-0.43912 c 0.189014,-0.31614 0.301311,-0.42723 0.401029,-0.3967 1.960214,0.60025 3.702349,0.9739 5.48174,1.17568 1.469955,0.16669 4.124824,0.16697 5.535402,6.2e-4 3.684682,-0.43465 7.083424,-1.69202 9.806482,-3.62797 0.377625,-0.26847 0.704366,-0.48814 0.726094,-0.48814 0.128871,0 0.489899,-0.65317 -11.682744,21.13753 -0.872575,1.56205 -1.60479,2.82181 -1.627126,2.79948 -0.02228,-0.0224 -0.03195,-0.81494 -0.02138,-1.76134 0.04005,-3.57669 -0.663465,-6.57203 -2.323818,-9.8944 -1.473163,-2.94776 -3.528671,-5.58617 -6.150357,-7.89445 l -0.477151,-0.42012 v 6.10604 6.10602 l 0.206883,0.97984 c 0.267622,1.26751 0.594668,2.22478 1.08333,3.17092 1.172851,2.27084 2.809935,3.40842 5.287301,3.67406 l 0.932324,0.10003 -0.497886,0.0545 c -0.68211,0.0747 -1.613062,0.0654 -2.406467,-0.024 z m -23.303127,-0.1317 c -0.02014,-0.0342 -1.912607,-3.42299 -4.205504,-7.53058 -2.292896,-4.10757 -5.270524,-9.43977 -6.6169524,-11.8493 -1.3464181,-2.40953 -2.4263602,-4.40266 -2.3998613,-4.42916 0.026554,-0.0267 0.4324788,0.21241 0.9021793,0.53091 2.7021754,1.8323 5.4740794,2.89547 8.9676874,3.43953 1.695427,0.26404 5.190207,0.26588 6.924432,0.004 1.440136,-0.21777 2.835332,-0.52517 4.045507,-0.89133 0.50087,-0.15154 0.937355,-0.25906 0.969952,-0.2389 0.03263,0.0201 0.17873,0.24542 0.324739,0.50061 l 0.265462,0.46398 -0.530069,0.45866 c -0.88835,0.76869 -2.50014,2.44409 -3.265595,3.39447 -2.458742,3.05279 -4.195128,6.66517 -4.894475,10.18257 -0.303979,1.52884 -0.399218,2.68299 -0.36608,4.43657 0.02678,1.4194 0.0012,1.73745 -0.121422,1.52835 z m 1.338957,0.005 c 0.05986,-0.024 0.131471,-0.021 0.159039,0.006 0.02757,0.0275 -0.02138,0.0471 -0.108922,0.0436 -0.09666,-0.004 -0.116325,-0.0236 -0.05018,-0.0502 z m 25.143393,0 c 0.05986,-0.024 0.131482,-0.021 0.159051,0.006 0.02757,0.0275 -0.02149,0.0471 -0.108922,0.0436 -0.09666,-0.004 -0.116337,-0.0236 -0.05018,-0.0502 z M 29.40032,265.39272 c 0,-0.0259 3.476922,-6.07118 4.044359,-7.03178 0.0773,-0.13082 0.165757,-0.23785 0.196633,-0.23785 0.05502,0 4.082235,6.88894 4.187364,7.16292 0.04973,0.1295 -0.249259,0.13945 -4.18742,0.13945 -2.332516,0 -4.240936,-0.0148 -4.240936,-0.0328 z m 8.398504,-2.08999 c -0.469667,-0.85216 -0.843083,-1.55737 -0.829816,-1.56716 0.133822,-0.0987 4.904084,-2.69968 4.951321,-2.69968 0.03488,0 0.525433,-0.26471 1.090149,-0.58825 2.563725,-1.46879 5.191106,-2.59317 6.847015,-2.93015 0.920656,-0.18737 2.862912,-0.19312 3.722636,-0.0113 1.607187,0.3404 3.088845,1.21022 4.288623,2.5177 0.667808,0.72773 1.472589,1.94377 1.941435,2.9335 0.422228,0.89134 0.494793,1.16149 0.138368,0.51513 -0.471456,-0.85498 -1.307608,-1.81845 -1.983089,-2.28508 -2.0539,-1.41883 -4.957286,-1.50945 -8.27616,-0.25831 -0.319483,0.12044 -2.873983,1.48701 -5.676672,3.03683 -2.802691,1.54979 -5.155224,2.83313 -5.227834,2.85184 -0.09789,0.0252 -0.353185,-0.36723 -0.985976,-1.51533 z m -14.413352,-1.45969 c -4.51252,-2.50571 -5.357076,-2.94574 -6.182122,-3.221 -4.564403,-1.52293 -7.97172,-0.55703 -9.7640187,2.76787 -0.5034913,0.93403 -0.28584,0.33328 0.2961926,-0.81753 1.4697644,-2.9061 3.5386301,-4.66746 6.1042921,-5.19701 0.930311,-0.19202 2.582,-0.20756 3.500135,-0.033 1.764471,0.3356 4.75092,1.61132 7.247438,3.09587 0.342304,0.20355 0.698594,0.39328 0.791772,0.42159 0.2445,0.0743 4.924868,2.66658 4.982255,2.75944 0.05177,0.0838 -1.605826,3.14773 -1.695562,3.13408 -0.02959,-0.004 -2.405791,-1.31418 -5.280382,-2.91037 z m 11.670659,-3.50498 c -0.463591,-0.83573 -0.842228,-1.55272 -0.841417,-1.59333 9.8e-4,-0.0406 0.719635,-0.47031 1.597398,-0.9549 0.877761,-0.48459 3.201614,-1.76805 5.164134,-2.85213 1.96251,-1.08409 3.846107,-2.18127 4.185777,-2.43819 0.339672,-0.25691 0.940359,-0.78452 1.334851,-1.17246 2.772016,-2.72589 3.450254,-5.60016 2.002173,-8.48487 -0.223378,-0.44497 -0.397777,-0.80906 -0.387548,-0.80906 0.07336,0 0.773961,1.11512 1.149571,1.82965 0.931785,1.77259 1.25443,3.08131 1.194681,4.84599 -0.05784,1.70686 -0.385276,2.69377 -1.405818,4.23643 -1.164491,1.76029 -3.202965,3.3708 -6.700185,5.2936 -0.664151,0.36515 -1.306956,0.73181 -1.428458,0.81481 -0.170504,0.11645 -3.971378,2.24154 -4.854924,2.71439 -0.154639,0.0828 -0.231413,-0.0258 -1.010235,-1.42993 z m -6.023917,0.0309 c -1.320638,-0.72977 -2.459564,-1.37811 -2.530937,-1.44075 -0.07134,-0.0627 -0.335158,-0.21613 -0.586184,-0.34109 -0.779418,-0.38796 -2.322277,-1.28594 -3.307857,-1.92526 -1.271613,-0.82486 -2.156666,-1.50725 -2.984763,-2.30128 -0.64852,-0.62186 -1.424652,-1.63262 -1.424652,-1.85533 0,-0.0546 -0.03691,-0.0995 -0.08192,-0.0995 -0.108133,0 -0.608463,-1.00017 -0.834891,-1.66883 -0.22159,-0.65441 -0.410256,-1.77597 -0.410234,-2.43876 4.6e-5,-1.25515 0.443888,-2.94849 1.129835,-4.31049 0.353578,-0.70206 1.229384,-2.12058 1.309251,-2.12058 0.02037,0 -0.107684,0.25205 -0.284512,0.56013 -1.614557,2.81285 -0.978301,5.91921 1.775655,8.66913 1.285341,1.28344 1.673407,1.53062 7.120659,4.53548 2.844244,1.56895 5.201897,2.88031 5.239221,2.91413 0.06368,0.0576 -1.592616,3.156 -1.684816,3.15173 -0.0234,-8.9e-4 -1.123207,-0.59904 -2.443834,-1.3288 z m 4.010424,-2.62427 c -0.09598,-0.0257 -0.208852,-0.35445 -0.402694,-1.17286 -1.572766,-6.64041 -5.422148,-12.11251 -10.708032,-15.22202 -0.433615,-0.25508 -1.07776,-0.59566 -1.431439,-0.75682 -0.353668,-0.16118 -0.643031,-0.3325 -0.643031,-0.38074 0,-0.0613 4.127942,-0.0878 13.691951,-0.0878 7.530576,0 13.691792,0.0281 13.691601,0.0622 -1.57e-4,0.0341 -0.497033,0.31288 -1.104112,0.61923 -6.068172,3.06217 -10.378533,9.11372 -11.971127,16.80689 -0.03499,0.16885 -0.08406,0.1858 -0.514215,0.17708 -0.261557,-0.005 -0.535571,-0.0257 -0.608902,-0.0453 z"
       id="path21"
       inkscape:connector-curvature="0" />
  </g>
</svg>
