<?xml version="1.0" encoding="UTF-8" standalone="no"?>
<!-- Created with Inkscape (http://www.inkscape.org/) -->

<svg
   xmlns:dc="http://purl.org/dc/elements/1.1/"
   xmlns:cc="http://creativecommons.org/ns#"
   xmlns:rdf="http://www.w3.org/1999/02/22-rdf-syntax-ns#"
   xmlns:svg="http://www.w3.org/2000/svg"
   xmlns="http://www.w3.org/2000/svg"
   xmlns:sodipodi="http://sodipodi.sourceforge.net/DTD/sodipodi-0.dtd"
   xmlns:inkscape="http://www.inkscape.org/namespaces/inkscape"
   width="800mm"
   height="400mm"
   viewBox="0 0 800 400"
   version="1.1"
   id="svg8"
   inkscape:version="0.92.3 (2405546, 2018-03-11)"
   sodipodi:docname="diagram.svg">
  <defs
     id="defs2">
    <style
       id="style5071">.cls-1{fill:#231f20;}.cls-2{fill:#ed145b;}</style>
  </defs>
  <sodipodi:namedview
     id="base"
     pagecolor="#ffffff"
     bordercolor="#666666"
     borderopacity="1.0"
     inkscape:pageopacity="0.0"
     inkscape:pageshadow="2"
     inkscape:zoom="0.35000001"
     inkscape:cx="2166.0461"
     inkscape:cy="377.83998"
     inkscape:document-units="mm"
     inkscape:current-layer="text5131"
     showgrid="false"
     inkscape:window-width="1366"
     inkscape:window-height="729"
     inkscape:window-x="0"
     inkscape:window-y="0"
     inkscape:window-maximized="1" />
  <metadata
     id="metadata5">
    <rdf:RDF>
      <cc:Work
         rdf:about="">
        <dc:format>image/svg+xml</dc:format>
        <dc:type
           rdf:resource="http://purl.org/dc/dcmitype/StillImage" />
        <dc:title />
      </cc:Work>
    </rdf:RDF>
  </metadata>
  <g
     inkscape:label="Layer 1"
     inkscape:groupmode="layer"
     id="layer1"
     transform="translate(0,103)">
    <path
       style="fill:#000000;stroke-width:0.2102942"
       d="m 356.53175,135.15715 v -15.87721 h 3.15441 3.15442 v -3.15441 -3.15442 h -3.15442 -3.15441 V 97.199057 81.426992 h 3.15441 3.15442 v -3.154413 -3.154413 h -3.15442 -3.15441 V 59.240954 43.363742 h 53.83532 53.83532 v 15.877212 15.877212 h -3.15441 -3.15442 v 3.154413 3.154413 h 3.15442 3.15441 v 15.772065 15.772053 h -3.15441 -3.15442 v 3.15442 3.15441 h 3.15442 3.15441 v 15.87721 15.87721 h -53.83532 -53.83532 z m 101.36181,0 v -9.56838 h -47.52649 -47.52649 v 9.56838 9.56839 h 47.52649 47.52649 z m -88.74416,0.10515 v -3.15442 h 3.15442 3.15441 v 3.15442 3.15441 h -3.15441 -3.15442 z m 12.61766,0 v -3.15442 h 3.15441 3.15441 v 3.15442 3.15441 h -3.15441 -3.15441 z m 42.47943,0 v -3.15442 h 13.66912 13.66913 v 3.15442 3.15441 h -13.66913 -13.66912 z m 27.33825,-19.13677 v -3.15442 H 410.36707 369.1494 v 3.15442 3.15441 h 41.21767 41.21767 z m 6.30882,-18.926473 v -9.463235 h -47.52649 -47.52649 v 9.463235 9.463233 h 47.52649 47.52649 z m -88.74416,0 v -3.15442 h 3.15442 3.15441 v 3.15442 3.154413 h -3.15441 -3.15442 z m 12.61766,0 v -3.15442 h 3.15441 3.15441 v 3.15442 3.154413 h -3.15441 -3.15441 z m 42.47943,0 v -3.15442 h 13.66912 13.66913 v 3.15442 3.154413 H 437.91561 424.24649 Z M 451.58474,78.272579 V 75.118166 H 410.36707 369.1494 v 3.154413 3.154413 h 41.21767 41.21767 z m 6.30882,-19.031625 v -9.568386 h -47.52649 -47.52649 v 9.568386 9.568386 h 47.52649 47.52649 z M 369.1494,59.135807 v -3.154413 h 3.15442 3.15441 v 3.154413 3.154413 h -3.15441 -3.15442 z m 12.61766,0 v -3.154413 h 3.15441 3.15441 v 3.154413 3.154413 h -3.15441 -3.15441 z m 42.47943,0 v -3.154413 h 13.66912 13.66913 v 3.154413 3.154413 h -13.66913 -13.66912 z"
       id="path21"
       inkscape:connector-curvature="0" />
    <g
       id="g129"
       transform="matrix(0.24002277,0,0,0.24002277,39.560849,39.472638)">
      <path
         id="path97"
         d="m 281.39844,203.46094 h 13.51172 v 0.85547 8.04296 c 0,6.75 4.27343,13.125 10.63671,15.86329 1.45313,0.6289 3.91407,1.42578 7.01563,1.42578 4.17969,0 9.52344,-1.45313 15.10937,-6.73828 l 12.4375,-11.73438 c 0.0703,-0.0625 0.13672,-0.12891 0.19922,-0.19531 7.60547,-7.72656 7.60938,-7.72656 17.85938,-7.57422 1.66797,0.0273 3.52734,0.0547 5.63281,0.0547 h 34.8125 c 10.72656,0 19.45703,-8.73047 19.45703,-19.46485 v -73.20312 c 0,-10.74609 -8.72656,-19.492189 -19.45703,-19.492189 H 281.39844 c -10.72656,0 -19.45313,8.746099 -19.45313,19.492189 v 73.20312 c 0,10.73438 8.72657,19.46485 19.45313,19.46485 z m -4.33985,-92.66406 c 0,-2.375 1.98828,-4.37891 4.33985,-4.37891 h 117.21484 c 2.39453,0 4.34375,1.96484 4.34375,4.37891 v 73.19921 c 0,2.35938 -1.98828,4.35157 -4.34375,4.35157 h -34.80859 c -2.02344,0 -3.8125,-0.0273 -5.41016,-0.0508 -12.94141,-0.19531 -17.20703,0.26954 -28.75781,11.98047 l -12.34375,11.64844 c -2.23047,2.10938 -4.38672,3.01172 -5.76953,2.41406 -0.97656,-0.41797 -1.4961,-1.42187 -1.4961,-1.98437 v -8.03906 c 0,-5.48047 0,-9.09766 -2.71093,-12.26954 -3.16016,-3.70312 -7.46875,-3.70312 -12.03125,-3.70312 h -13.88282 c -2.35547,0 -4.34375,-1.99219 -4.34375,-4.34766 z m 0,0"
         inkscape:connector-curvature="0" />
      <path
         id="path99"
         d="m 309.22656,154.95312 h 0.22656 c 4.17579,0 7.5586,-3.38281 7.5586,-7.55468 0,-4.17578 -3.38281,-7.5586 -7.5586,-7.5586 h -0.22656 c -4.17187,0 -7.55469,3.38282 -7.55469,7.5586 0,4.17187 3.38282,7.55468 7.55469,7.55468 z m 0,0"
         inkscape:connector-curvature="0" />
      <path
         id="path101"
         d="m 339.26953,154.95312 h 0.22656 c 4.17578,0 7.5586,-3.38281 7.5586,-7.55468 0,-4.17578 -3.38282,-7.5586 -7.5586,-7.5586 h -0.22656 c -4.17578,0 -7.55859,3.38282 -7.55859,7.5586 0,4.17187 3.38281,7.55468 7.55859,7.55468 z m 0,0"
         inkscape:connector-curvature="0" />
      <path
         id="path103"
         d="m 369.33984,154.95312 h 0.19532 c 4.17578,0 7.55859,-3.38281 7.55859,-7.55468 0,-4.17578 -3.38281,-7.5586 -7.55859,-7.5586 h -0.19532 c -4.17578,0 -7.55859,3.38282 -7.55859,7.5586 0,4.17187 3.38281,7.55468 7.55859,7.55468 z m 0,0"
         inkscape:connector-curvature="0" />
      <path
         id="path105"
         d="m 180.05859,273.96484 h -0.19922 c -4.17578,0 -7.55859,3.38672 -7.55859,7.5586 0,4.17578 3.38281,7.55859 7.55859,7.55859 h 0.19922 c 4.17188,0 7.55469,-3.38672 7.55469,-7.55859 0,-4.17188 -3.38281,-7.5586 -7.55469,-7.5586 z m 0,0"
         inkscape:connector-curvature="0" />
      <path
         id="path107"
         d="m 179.14844,262.76562 h 0.19922 c 4.17187,0 7.55468,-3.38281 7.55468,-7.55468 0,-4.17578 -3.38281,-7.5586 -7.55468,-7.5586 h -0.19922 c -4.17578,0 -7.5586,3.38672 -7.5586,7.5586 0.004,4.17187 3.38672,7.55468 7.5586,7.55468 z m 0,0"
         inkscape:connector-curvature="0" />
      <path
         id="path109"
         d="m 478.37109,0.515625 c -0.0508,-0.003906 -0.0976,-0.003906 -0.14843,-0.003906 L 256.99609,0 c -0.0117,0 -0.0234,0 -0.0351,0 L 33.792969,0.511719 C 15.160156,0.511719 0,15.679688 0,34.328125 V 361.43359 c 0,18.64453 15.160156,33.8125 33.792969,33.8125 H 179.5625 l -6.85156,26.28907 H 154.8125 c -16.37891,0 -29.70312,13.33203 -29.70312,29.72265 v 12.16407 c 0,9.69531 7.87109,17.58593 17.55078,17.58593 h 237.72656 c 9.67578,0 17.55078,-7.89062 17.55078,-17.58593 v -12.16407 c 0,-16.39062 -13.33594,-29.72265 -29.73437,-29.72265 h -17.89844 l -6.85156,-26.28907 h 134.7539 C 496.83984,395.24609 512,380.07812 512,361.43359 V 34.328125 C 512,16.082031 496.91406,0.914062 478.37109,0.515625 Z M 382.82422,451.25781 v 12.16406 c 0,1.33985 -1.11719,2.47266 -2.4375,2.47266 H 142.66016 c -1.32032,0 -2.4375,-1.13281 -2.4375,-2.47266 v -12.16406 c 0,-8.05469 6.54687,-14.60547 14.58984,-14.60547 h 23.71484 0.0312 0.0195 165.85937 0.0234 0.0273 23.71484 c 8.0625,0 14.6211,6.55078 14.6211,14.60547 z M 334.6875,421.53516 H 188.33203 l 6.85156,-26.28907 H 327.83594 Z M 478.20703,380.13281 H 33.792969 c -10.300781,0 -18.679688,-8.39062 -18.679688,-18.69922 V 348.58594 H 239.34766 c 4.17187,0 7.55468,-3.38281 7.55468,-7.55469 0,-4.17578 -3.38281,-7.55859 -7.55468,-7.55859 H 15.113281 V 34.328125 C 15.113281,24.015625 23.492188,15.625 33.8125,15.625 L 256.98047,15.113281 478.10937,15.625 c 10.35938,0.261719 18.77735,8.636719 18.77735,18.699219 V 333.46875 h -222.8711 c -4.17187,0 -7.55468,3.38281 -7.55468,7.55859 0,4.17578 3.38281,7.5586 7.55468,7.5586 h 222.8711 v 12.84375 c 0,10.3125 -8.37891,18.70312 -18.67969,18.70312 z m 0,0"
         inkscape:connector-curvature="0" />
      <path
         id="path111"
         d="m 460.60156,313.97266 c 7.25,0 13.15235,-5.89844 13.15235,-13.15235 V 51.945312 c 0,-7.269531 -5.90235,-13.183593 -13.15235,-13.183593 H 275.21094 c -4.17578,0 -7.5586,3.382812 -7.5586,7.554687 0,4.175782 3.38282,7.558594 7.5586,7.558594 h 183.42578 v 244.98437 h -171.0625 c -5.46875,-42.91406 -36.77734,-66.99218 -68.79297,-76.96875 15.25391,-11.37109 24.26172,-27.96093 24.26172,-45 v -20.83984 c 0.17578,-2.375 0.11328,-5.00391 0.0508,-7.34766 -0.0234,-0.77734 -0.043,-1.51171 -0.0508,-2.11718 -0.23828,-42.70313 -31.08594,-61.785159 -61.62109,-61.785159 -0.0664,0 -0.13672,0 -0.20313,0 -16.21094,0.04687 -32.30859,5.5 -44.16797,14.964844 -13.5039,10.777345 -20.9414,26.156245 -20.9414,43.308595 v 33.8164 c 0,17.6836 9.73828,34.16797 24.40625,45.07032 -14.45313,4.60937 -28.09766,11.8789 -39.17969,21.07422 C 83.21875,258.07422 72.765625,277.25 70.796875,298.85547 H 53.132812 V 53.875 H 240.3125 c 4.17188,0 7.55469,-3.382812 7.55469,-7.554688 0,-4.175781 -3.38281,-7.558593 -7.55469,-7.558593 H 51.171875 c -7.25,0 -13.152344,5.914062 -13.152344,13.183593 V 300.82031 c 0,7.25391 5.902344,13.15625 13.152344,13.15625 H 460.60156 Z M 131.22266,143.07812 c 0,-27.9414 25.78125,-43.089839 50.03906,-43.160151 h 0.15234 c 21.375,0 46.32032,12.234371 46.51172,46.792971 0.008,0.49609 0.0195,1.03125 0.0352,1.59765 h -24.44922 c -19.83203,0 -27.625,-4.73047 -34.50781,-8.91015 -1.39063,-0.84375 -2.63282,-1.66016 -3.83594,-2.44922 -3.87891,-2.55078 -7.5625,-4.97656 -12.12109,-4.97656 -0.53516,0 -1.08594,0.0352 -1.64844,0.10546 -6.20313,0.78125 -10.54688,5.91797 -14.32422,11.35157 -3.01953,4.35547 -4.30859,4.82031 -5.85547,4.87109 v -5.22266 z m 0,33.81641 v -13.49219 c 9.24609,-0.21875 14.2539,-5.5664 18.26953,-11.35547 1.95312,-2.8125 3.16797,-4.10937 3.8125,-4.6914 0.92187,0.48437 2.35547,1.42578 3.5625,2.21875 1.2539,0.82812 2.67969,1.76562 4.30469,2.74609 7.71484,4.6875 18.28125,11.10156 42.33984,11.10156 h 24.41797 v 13.46875 c 0,13.04297 -7.65235,25.9375 -20.47656,34.5 -3.78907,2.54297 -7.86329,4.5586 -12.0586,6.01172 -0.57422,0.11719 -1.1289,0.30078 -1.65625,0.54297 -4.66015,1.4375 -9.4414,2.17578 -14.11719,2.14063 -4.89843,-0.0273 -9.70703,-0.82813 -14.28125,-2.25 -0.41015,-0.17578 -0.83593,-0.31641 -1.27734,-0.41797 -18.49219,-6.27735 -32.83984,-22.81641 -32.83984,-40.52344 z m 30.35547,55.62109 c 5.74218,1.70313 11.76953,2.64844 17.9414,2.6875 0.14063,0 0.28516,0.004 0.42969,0.004 5.89062,0 11.86719,-0.92187 17.69141,-2.66016 31.57031,4.60547 68.20703,24.5625 74.64843,66.3125 h -24.58984 v -12.5039 c 0,-4.17578 -3.38281,-7.5586 -7.55859,-7.5586 -4.17188,0 -7.55469,3.38282 -7.55469,7.5586 v 12.5039 H 126.14063 v -12.5039 c 0,-4.17578 -3.38282,-7.5586 -7.5586,-7.5586 -4.17578,0 -7.55859,3.38282 -7.55859,7.5586 v 12.5039 H 85.984375 c 4.578125,-41.1329 46.132815,-61.9454 75.593755,-66.34384 z m 0,0"
         inkscape:connector-curvature="0" />
    </g>
    <path
       style="fill:#000000;stroke:#000000;stroke-width:7.17914248;stroke-linecap:round;stroke-linejoin:miter;stroke-miterlimit:4;stroke-dasharray:none;stroke-opacity:1"
       d="M 200.1434,97.199051 H 320.49761"
       id="path131"
       inkscape:connector-curvature="0" />
    <g
       aria-label="Video Source "
       style="font-style:normal;font-weight:normal;font-size:10.58333302px;line-height:1.25;font-family:sans-serif;letter-spacing:0px;word-spacing:0px;fill:#000000;fill-opacity:1;stroke:none;stroke-width:0.26458332"
       id="text4643"
       transform="matrix(2.189901,0,0,2.189901,-94.445653,-198.29707)">
      <path
         d="m 59.225621,185.11905 h -1.023193 l -2.971395,-7.28121 h 1.038697 l 2.01538,5.1263 0.434082,1.28675 0.434082,-1.28675 2.005046,-5.1263 h 1.038696 z"
         style="stroke-width:0.26458332"
         id="path4647"
         inkscape:connector-curvature="0" />
      <path
         d="m 62.775792,178.3391 v -0.88883 h 0.930176 v 0.88883 z m 0,6.77995 v -5.59139 h 0.930176 v 5.59139 z"
         style="stroke-width:0.26458332"
         id="path4649"
         inkscape:connector-curvature="0" />
      <path
         d="m 68.666906,184.21988 q -0.258383,0.53743 -0.687297,0.76998 -0.423747,0.23254 -1.054199,0.23254 -1.059367,0 -1.560628,-0.71313 -0.496094,-0.71314 -0.496094,-2.16008 0,-2.92488 2.056722,-2.92488 0.63562,0 1.059367,0.23254 0.423746,0.23254 0.682129,0.73897 h 0.01033 l -0.01033,-0.62528 v -2.32027 h 0.930175 v 6.51639 q 0,0.87334 0.03101,1.15239 h -0.888834 q -0.0155,-0.0827 -0.03617,-0.38241 -0.0155,-0.29972 -0.0155,-0.51676 z m -2.821534,-1.90169 q 0,1.17305 0.310059,1.67948 0.310059,0.50643 1.00769,0.50643 0.79065,0 1.147217,-0.54777 0.356568,-0.54777 0.356568,-1.70016 0,-1.11104 -0.356568,-1.6278 -0.356567,-0.51677 -1.136881,-0.51677 -0.7028,0 -1.018026,0.52193 -0.310059,0.51677 -0.310059,1.68466 z"
         style="stroke-width:0.26458332"
         id="path4651"
         inkscape:connector-curvature="0" />
      <path
         d="m 71.741653,182.51972 q 0,0.96119 0.397909,1.48312 0.397908,0.52193 1.16272,0.52193 0.604614,0 0.966349,-0.24288 0.366903,-0.24288 0.496094,-0.61495 l 0.816487,0.23255 q -0.501261,1.32291 -2.27893,1.32291 -1.240235,0 -1.891358,-0.73897 -0.645955,-0.73897 -0.645955,-2.19625 0,-1.38493 0.645955,-2.1239 0.651123,-0.73897 1.855184,-0.73897 2.464966,0 2.464966,2.97139 v 0.12402 z m 3.028239,-0.71313 q -0.07751,-0.88367 -0.449585,-1.28674 -0.37207,-0.40825 -1.069702,-0.40825 -0.676961,0 -1.07487,0.45476 -0.39274,0.44958 -0.423746,1.24023 z"
         style="stroke-width:0.26458332"
         id="path4653"
         inkscape:connector-curvature="0" />
      <path
         d="m 81.648025,182.31819 q 0,1.46761 -0.645955,2.18591 -0.645955,0.7183 -1.875854,0.7183 -1.224732,0 -1.850017,-0.74414 -0.625285,-0.74931 -0.625285,-2.16007 0,-2.89388 2.506307,-2.89388 1.281576,0 1.88619,0.70796 0.604614,0.7028 0.604614,2.18592 z m -0.976684,0 q 0,-1.15756 -0.346232,-1.67949 -0.341065,-0.5271 -1.152385,-0.5271 -0.816487,0 -1.18339,0.53744 -0.361735,0.53227 -0.361735,1.66915 0,1.10587 0.356567,1.66398 0.361735,0.55294 1.131714,0.55294 0.837158,0 1.193726,-0.53744 0.361735,-0.53743 0.361735,-1.67948 z"
         style="stroke-width:0.26458332"
         id="path4655"
         inkscape:connector-curvature="0" />
      <path
         d="m 91.606073,183.10884 q 0,1.00769 -0.790649,1.56062 -0.785482,0.55294 -2.216919,0.55294 -2.661336,0 -3.085083,-1.85001 l 0.956014,-0.19121 q 0.165365,0.65629 0.702799,0.96635 0.537435,0.30489 1.462443,0.30489 0.956014,0 1.472779,-0.32556 0.521932,-0.33073 0.521932,-0.96635 0,-0.35657 -0.165365,-0.57877 -0.160197,-0.22221 -0.454753,-0.36691 -0.294555,-0.14469 -0.702799,-0.24288 -0.408244,-0.0982 -0.904338,-0.21187 -0.862996,-0.1912 -1.312581,-0.3824 -0.444417,-0.19121 -0.702799,-0.42375 -0.258382,-0.23771 -0.397909,-0.55294 -0.134359,-0.31523 -0.134359,-0.72347 0,-0.93534 0.713135,-1.44177 0.718303,-0.50643 2.051554,-0.50643 1.240235,0 1.896525,0.38241 0.656291,0.37723 0.919841,1.29191 l -0.971517,0.17053 q -0.160197,-0.57878 -0.609782,-0.83716 -0.449585,-0.26355 -1.245402,-0.26355 -0.873331,0 -1.333252,0.28939 -0.45992,0.28939 -0.45992,0.86299 0,0.3359 0.1757,0.55811 0.180867,0.21704 0.516764,0.37207 0.335897,0.14986 1.33842,0.37207 0.335897,0.0775 0.666626,0.1602 0.335897,0.0775 0.640787,0.1912 0.304891,0.10852 0.568441,0.25838 0.268718,0.14986 0.465088,0.36691 0.196371,0.21704 0.304891,0.51159 0.113688,0.29456 0.113688,0.69247 z"
         style="stroke-width:0.26458332"
         id="path4657"
         inkscape:connector-curvature="0" />
      <path
         d="m 97.543697,182.31819 q 0,1.46761 -0.645955,2.18591 -0.645956,0.7183 -1.875855,0.7183 -1.224731,0 -1.850016,-0.74414 -0.625285,-0.74931 -0.625285,-2.16007 0,-2.89388 2.506307,-2.89388 1.281576,0 1.88619,0.70796 0.604614,0.7028 0.604614,2.18592 z m -0.976684,0 q 0,-1.15756 -0.346232,-1.67949 -0.341065,-0.5271 -1.152385,-0.5271 -0.816487,0 -1.18339,0.53744 -0.361735,0.53227 -0.361735,1.66915 0,1.10587 0.356567,1.66398 0.361735,0.55294 1.131714,0.55294 0.837158,0 1.193726,-0.53744 0.361735,-0.53743 0.361735,-1.67948 z"
         style="stroke-width:0.26458332"
         id="path4659"
         inkscape:connector-curvature="0" />
      <path
         d="m 99.615922,179.52766 v 3.545 q 0,0.55294 0.108521,0.85783 0.10852,0.30489 0.346227,0.43925 0.23772,0.13436 0.69764,0.13436 0.67179,0 1.05936,-0.45992 0.38758,-0.45992 0.38758,-1.27641 v -3.24011 h 0.93017 v 4.39766 q 0,0.97669 0.031,1.19373 h -0.8785 q -0.005,-0.0258 -0.0103,-0.13953 -0.005,-0.11369 -0.0155,-0.25838 -0.005,-0.14986 -0.0155,-0.5581 h -0.0155 q -0.32039,0.57877 -0.74414,0.82165 -0.41857,0.23771 -1.04386,0.23771 -0.91984,0 -1.348754,-0.45475 -0.423747,-0.45992 -0.423747,-1.51412 v -3.72587 z"
         style="stroke-width:0.26458332"
         id="path4661"
         inkscape:connector-curvature="0" />
      <path
         d="m 104.6182,185.11905 v -4.28914 q 0,-0.58912 -0.031,-1.30225 h 0.87849 q 0.0414,0.95085 0.0414,1.14205 h 0.0207 q 0.2222,-0.7183 0.51159,-0.98185 0.28939,-0.26355 0.81649,-0.26355 0.18604,0 0.37724,0.0517 v 0.85266 q -0.18604,-0.0517 -0.4961,-0.0517 -0.57877,0 -0.88366,0.50126 -0.30489,0.49609 -0.30489,1.42627 v 2.91455 z"
         style="stroke-width:0.26458332"
         id="path4663"
         inkscape:connector-curvature="0" />
      <path
         d="m 108.84017,182.29752 q 0,1.11621 0.3514,1.65364 0.35139,0.53744 1.05936,0.53744 0.4961,0 0.82682,-0.26872 0.3359,-0.26872 0.41342,-0.82682 l 0.94051,0.062 q -0.10852,0.80615 -0.6873,1.28674 -0.57878,0.48059 -1.46761,0.48059 -1.17305,0 -1.79317,-0.73897 -0.61495,-0.74414 -0.61495,-2.16524 0,-1.41077 0.62012,-2.14974 0.62011,-0.74414 1.77766,-0.74414 0.85783,0 1.42111,0.44441 0.56844,0.44442 0.71313,1.22474 l -0.95601,0.0723 q -0.0724,-0.46509 -0.36691,-0.73897 -0.29455,-0.27389 -0.83715,-0.27389 -0.73898,0 -1.06971,0.49093 -0.33072,0.49093 -0.33072,1.65365 z"
         style="stroke-width:0.26458332"
         id="path4665"
         inkscape:connector-curvature="0" />
      <path
         d="m 114.137,182.51972 q 0,0.96119 0.39791,1.48312 0.3979,0.52193 1.16272,0.52193 0.60461,0 0.96634,-0.24288 0.36691,-0.24288 0.4961,-0.61495 l 0.81649,0.23255 q -0.50127,1.32291 -2.27893,1.32291 -1.24024,0 -1.89136,-0.73897 -0.64596,-0.73897 -0.64596,-2.19625 0,-1.38493 0.64596,-2.1239 0.65112,-0.73897 1.85518,-0.73897 2.46497,0 2.46497,2.97139 v 0.12402 z m 3.02824,-0.71313 q -0.0775,-0.88367 -0.44959,-1.28674 -0.37207,-0.40825 -1.0697,-0.40825 -0.67696,0 -1.07487,0.45476 -0.39274,0.44958 -0.42375,1.24023 z"
         style="stroke-width:0.26458332"
         id="path4667"
         inkscape:connector-curvature="0" />
    </g>
    <g
       aria-label="RTMP Server"
       style="font-style:normal;font-weight:normal;font-size:10.58333302px;line-height:1.25;font-family:sans-serif;letter-spacing:0px;word-spacing:0px;fill:#000000;fill-opacity:1;stroke:none;stroke-width:0.26458332"
       id="text4672"
       transform="matrix(2.0483408,0,0,2.0483408,-334.88408,-176.00978)">
      <path
         d="m 335.61038,186.63097 -1.89136,-3.02308 h -2.26859 v 3.02308 h -0.98702 v -7.28121 h 3.42615 q 1.2299,0 1.89652,0.55293 0.6718,0.54778 0.6718,1.52963 0,0.81132 -0.47543,1.36426 -0.47025,0.55293 -1.30224,0.69763 l 2.06705,3.13676 z m -0.14469,-5.18832 q 0,-0.63562 -0.43408,-0.96635 -0.42892,-0.33589 -1.24024,-0.33589 h -2.34094 v 2.68717 h 2.38228 q 0.78032,0 1.20406,-0.36173 0.42892,-0.36691 0.42892,-1.0232 z"
         style="stroke-width:0.26458332"
         id="path4674"
         inkscape:connector-curvature="0" />
      <path
         d="m 340.77803,180.15591 v 6.47506 h -0.98186 v -6.47506 h -2.50114 v -0.80615 h 5.98413 v 0.80615 z"
         style="stroke-width:0.26458332"
         id="path4676"
         inkscape:connector-curvature="0" />
      <path
         d="m 350.58621,186.63097 v -4.85759 q 0,-0.80615 0.0465,-1.55029 -0.25321,0.92501 -0.45475,1.44694 l -1.88102,4.96094 h -0.69247 l -1.90686,-4.96094 -0.28939,-0.8785 -0.17053,-0.56844 0.0155,0.57361 0.0207,0.97668 v 4.85759 h -0.87849 v -7.28121 h 1.29707 l 1.93787,5.04878 q 0.10335,0.3049 0.19637,0.6563 0.0982,0.34623 0.12919,0.50126 0.0413,-0.20671 0.17053,-0.62529 0.13436,-0.42375 0.18087,-0.53227 l 1.90169,-5.04878 h 1.26608 v 7.28121 z"
         style="stroke-width:0.26458332"
         id="path4678"
         inkscape:connector-curvature="0" />
      <path
         d="m 358.85444,181.54084 q 0,1.03353 -0.67696,1.64331 -0.67179,0.60978 -1.82935,0.60978 h -2.1394 v 2.83704 h -0.98702 v -7.28121 h 3.06441 q 1.22473,0 1.89653,0.57361 0.67179,0.5736 0.67179,1.61747 z m -0.99219,0.0103 q 0,-1.41076 -1.69498,-1.41076 h -1.95854 v 2.87321 h 1.99988 q 1.65364,0 1.65364,-1.46245 z"
         style="stroke-width:0.26458332"
         id="path4680"
         inkscape:connector-curvature="0" />
      <path
         d="m 368.74531,184.62075 q 0,1.00769 -0.79065,1.56063 -0.78548,0.55294 -2.21692,0.55294 -2.66134,0 -3.08508,-1.85002 l 0.95601,-0.1912 q 0.16537,0.65629 0.7028,0.96635 0.53743,0.30489 1.46244,0.30489 0.95602,0 1.47278,-0.32556 0.52193,-0.33073 0.52193,-0.96635 0,-0.35657 -0.16536,-0.57878 -0.1602,-0.22221 -0.45475,-0.3669 -0.29456,-0.14469 -0.7028,-0.24288 -0.40825,-0.0982 -0.90434,-0.21187 -0.863,-0.1912 -1.31258,-0.38241 -0.44442,-0.1912 -0.7028,-0.42374 -0.25838,-0.23772 -0.39791,-0.55294 -0.13436,-0.31523 -0.13436,-0.72347 0,-0.93535 0.71314,-1.44177 0.7183,-0.50643 2.05155,-0.50643 1.24023,0 1.89653,0.3824 0.65629,0.37724 0.91984,1.29191 l -0.97152,0.17054 q -0.1602,-0.57878 -0.60978,-0.83716 -0.44959,-0.26355 -1.24541,-0.26355 -0.87333,0 -1.33325,0.28939 -0.45992,0.28938 -0.45992,0.86299 0,0.3359 0.1757,0.55811 0.18087,0.21704 0.51677,0.37207 0.33589,0.14986 1.33842,0.37207 0.33589,0.0775 0.66662,0.16019 0.3359,0.0775 0.64079,0.19121 0.30489,0.10852 0.56844,0.25838 0.26872,0.14986 0.46509,0.3669 0.19637,0.21704 0.30489,0.5116 0.11369,0.29455 0.11369,0.69246 z"
         style="stroke-width:0.26458332"
         id="path4682"
         inkscape:connector-curvature="0" />
      <path
         d="m 370.66767,184.03164 q 0,0.96118 0.39791,1.48312 0.39791,0.52193 1.16272,0.52193 0.60461,0 0.96635,-0.24288 0.3669,-0.24288 0.49609,-0.61495 l 0.81649,0.23254 q -0.50126,1.32292 -2.27893,1.32292 -1.24023,0 -1.89136,-0.73897 -0.64595,-0.73898 -0.64595,-2.19625 0,-1.38493 0.64595,-2.1239 0.65113,-0.73898 1.85519,-0.73898 2.46496,0 2.46496,2.9714 v 0.12402 z m 3.02824,-0.71313 q -0.0775,-0.88367 -0.44958,-1.28675 -0.37208,-0.40824 -1.06971,-0.40824 -0.67696,0 -1.07487,0.45475 -0.39274,0.44959 -0.42374,1.24024 z"
         style="stroke-width:0.26458332"
         id="path4684"
         inkscape:connector-curvature="0" />
      <path
         d="m 375.86632,186.63097 v -4.28915 q 0,-0.58911 -0.031,-1.30224 h 0.8785 q 0.0413,0.95084 0.0413,1.14205 h 0.0207 q 0.2222,-0.71831 0.51159,-0.98186 0.28939,-0.26355 0.81649,-0.26355 0.18603,0 0.37724,0.0517 v 0.85266 q -0.18604,-0.0517 -0.4961,-0.0517 -0.57877,0 -0.88366,0.50127 -0.30489,0.49609 -0.30489,1.42627 v 2.91455 z"
         style="stroke-width:0.26458332"
         id="path4686"
         inkscape:connector-curvature="0" />
      <path
         d="m 381.83495,186.63097 h -1.10071 l -2.03088,-5.59139 h 0.99218 l 1.2299,3.63802 q 0.0672,0.2067 0.35657,1.22473 l 0.18087,-0.60462 0.20154,-0.60978 1.27124,-3.64835 h 0.98702 z"
         style="stroke-width:0.26458332"
         id="path4688"
         inkscape:connector-curvature="0" />
      <path
         d="m 385.38512,184.03164 q 0,0.96118 0.39791,1.48312 0.39791,0.52193 1.16272,0.52193 0.60461,0 0.96635,-0.24288 0.3669,-0.24288 0.49609,-0.61495 l 0.81649,0.23254 q -0.50126,1.32292 -2.27893,1.32292 -1.24024,0 -1.89136,-0.73897 -0.64595,-0.73898 -0.64595,-2.19625 0,-1.38493 0.64595,-2.1239 0.65112,-0.73898 1.85519,-0.73898 2.46496,0 2.46496,2.9714 v 0.12402 z m 3.02824,-0.71313 q -0.0775,-0.88367 -0.44959,-1.28675 -0.37207,-0.40824 -1.0697,-0.40824 -0.67696,0 -1.07487,0.45475 -0.39274,0.44959 -0.42374,1.24024 z"
         style="stroke-width:0.26458332"
         id="path4690"
         inkscape:connector-curvature="0" />
      <path
         d="m 390.58377,186.63097 v -4.28915 q 0,-0.58911 -0.031,-1.30224 h 0.8785 q 0.0413,0.95084 0.0413,1.14205 h 0.0207 q 0.22221,-0.71831 0.5116,-0.98186 0.28939,-0.26355 0.81649,-0.26355 0.18603,0 0.37724,0.0517 v 0.85266 q -0.18604,-0.0517 -0.4961,-0.0517 -0.57877,0 -0.88366,0.50127 -0.30489,0.49609 -0.30489,1.42627 v 2.91455 z"
         style="stroke-width:0.26458332"
         id="path4692"
         inkscape:connector-curvature="0" />
    </g>
    <g
       id="g4876"
       transform="matrix(0.12203925,0,0,0.12203925,660.2662,-87.223353)">
      <path
         id="path4803"
         d="m 478.303,456.832 -64,-128 C 411.584,323.424 406.048,320 400,320 H 80 c -6.048,0 -11.584,3.424 -14.304,8.832 l -64,128 C -0.8,461.792 -0.512,467.68 2.4,472.384 5.312,477.088 10.464,480 16,480 h 448 c 5.536,0 10.688,-2.88 13.632,-7.584 2.912,-4.736 3.136,-10.592 0.671,-15.584 z"
         style="fill:#ff9800"
         inkscape:connector-curvature="0" />
      <g
         id="g4809">
        <path
           id="path4805"
           d="m 368,336 c 0,46.72 -114.88,48 -128,48 -13.12,0 -128,-1.28 -128,-48 0,-1.28 0.32,-2.88 0.64,-4.16 l 22.08,-80.96 C 150.4,263.04 191.68,272 240,272 c 48.32,0 89.6,-8.96 105.28,-21.12 l 22.08,80.96 c 0.32,1.28 0.64,2.88 0.64,4.16 z"
           style="fill:#fafafa"
           inkscape:connector-curvature="0" />
        <path
           id="path4807"
           d="M 321.92,165.76 C 301.76,172.16 272.32,176 240,176 c -32.32,0 -61.76,-3.84 -81.92,-10.24 L 182.72,75.52 C 199.36,78.4 219.2,80 240,80 c 20.8,0 40.64,-1.6 57.28,-4.48 z"
           style="fill:#fafafa"
           inkscape:connector-curvature="0" />
      </g>
      <g
         id="g4815">
        <path
           id="path4811"
           d="m 240,80 c -20.8,0 -40.64,-1.6 -57.28,-4.48 l 11.2,-40.64 C 200,13.44 218.24,0 240,0 c 21.76,0 40,13.44 46.08,34.56 l 11.2,40.96 C 280.64,78.4 260.799,80 240,80 Z"
           style="fill:#ff9800"
           inkscape:connector-curvature="0" />
        <path
           id="path4813"
           d="M 345.28,250.88 C 329.6,263.04 288.32,272 240,272 c -48.32,0 -89.6,-8.96 -105.28,-21.12 l 23.36,-85.12 c 20.16,6.4 49.6,10.24 81.92,10.24 32.32,0 61.76,-3.84 81.92,-10.24 z"
           style="fill:#ff9800"
           inkscape:connector-curvature="0" />
      </g>
      <g
         id="g4817" />
      <g
         id="g4819" />
      <g
         id="g4821" />
      <g
         id="g4823" />
      <g
         id="g4825" />
      <g
         id="g4827" />
      <g
         id="g4829" />
      <g
         id="g4831" />
      <g
         id="g4833" />
      <g
         id="g4835" />
      <g
         id="g4837" />
      <g
         id="g4839" />
      <g
         id="g4841" />
      <g
         id="g4843" />
      <g
         id="g4845" />
    </g>
    <g
       aria-label="VLC Media Player"
       style="font-style:normal;font-weight:normal;font-size:10.58333302px;line-height:1.25;font-family:sans-serif;letter-spacing:0px;word-spacing:0px;fill:#000000;fill-opacity:1;stroke:none;stroke-width:0.26458332"
       id="text4880"
       transform="translate(-0.92062635,-22.893854)">
      <path
         d="m 651.90243,9.4179897 h -1.0232 l -2.97139,-7.2812091 h 1.03869 l 2.01538,5.126302 0.43409,1.2867431 0.43408,-1.2867431 2.00504,-5.126302 h 1.0387 z"
         style="stroke-width:0.26458332"
         id="path4882"
         inkscape:connector-curvature="0" />
      <path
         d="M 655.79883,9.4179897 V 2.1367806 h 0.98702 v 6.4750568 h 3.67936 v 0.8061523 z"
         style="stroke-width:0.26458332"
         id="path4884"
         inkscape:connector-curvature="0" />
      <path
         d="m 664.91455,2.8344125 q -1.20923,0 -1.88102,0.7803141 -0.6718,0.7751464 -0.6718,2.1290689 0,1.3384196 0.69764,2.1549072 0.7028,0.8113199 1.89652,0.8113199 1.52962,0 2.2996,-1.5141194 l 0.80616,0.4030762 q -0.44959,0.940511 -1.26608,1.4314371 -0.81132,0.4909261 -1.88619,0.4909261 -1.1007,0 -1.90686,-0.4547526 -0.80098,-0.4599202 -1.22473,-1.3074137 -0.41858,-0.8526611 -0.41858,-2.0153808 0,-1.7414957 0.94051,-2.7285155 0.94051,-0.9870199 2.6045,-0.9870199 1.16272,0 1.94303,0.4547526 0.78031,0.4547526 1.14722,1.3487549 l -0.93535,0.3100586 q -0.25321,-0.6356201 -0.81649,-0.9715169 -0.5581,-0.3358968 -1.32808,-0.3358968 z"
         style="stroke-width:0.26458332"
         id="path4886"
         inkscape:connector-curvature="0" />
      <path
         d="M 678.46411,9.4179897 V 4.5604052 q 0,-0.8061523 0.0465,-1.5502929 -0.25322,0.9250081 -0.45475,1.4469401 l -1.88103,4.9609373 h -0.69246 l -1.90686,-4.9609373 -0.28939,-0.8784993 -0.17053,-0.5684408 0.0155,0.5736084 0.0207,0.9766845 v 4.8575845 h -0.8785 V 2.1367806 h 1.29708 l 1.93787,5.0487873 q 0.10335,0.304891 0.19637,0.6562907 0.0982,0.3462321 0.12919,0.5012614 0.0413,-0.2067058 0.17053,-0.6252848 0.13436,-0.4237468 0.18087,-0.5322673 l 1.90169,-5.0487873 h 1.26607 v 7.2812091 z"
         style="stroke-width:0.26458332"
         id="path4888"
         inkscape:connector-curvature="0" />
      <path
         d="m 681.65771,6.8186653 q 0,0.9611816 0.39791,1.4831135 0.39791,0.521932 1.16272,0.521932 0.60462,0 0.96635,-0.2428792 0.3669,-0.2428793 0.4961,-0.6149496 l 0.81648,0.232544 q -0.50126,1.3229166 -2.27893,1.3229166 -1.24023,0 -1.89135,-0.738973 -0.64596,-0.7389729 -0.64596,-2.1962483 0,-1.3849283 0.64596,-2.1239013 0.65112,-0.7389729 1.85518,-0.7389729 2.46497,0 2.46497,2.9713947 v 0.1240235 z m 3.02824,-0.7131348 q -0.0775,-0.8836669 -0.44958,-1.2867431 -0.37207,-0.4082438 -1.0697,-0.4082438 -0.67696,0 -1.07487,0.4547526 -0.39274,0.4495849 -0.42375,1.2402343 z"
         style="stroke-width:0.26458332"
         id="path4890"
         inkscape:connector-curvature="0" />
      <path
         d="m 690.36519,8.5188198 q -0.25838,0.5374349 -0.68729,0.7699789 -0.42375,0.2325439 -1.0542,0.2325439 -1.05937,0 -1.56063,-0.7131348 -0.49609,-0.7131347 -0.49609,-2.1600748 0,-2.9248859 2.05672,-2.9248859 0.63562,0 1.05936,0.2325439 0.42375,0.2325439 0.68213,0.738973 h 0.0103 l -0.0103,-0.6252849 V 1.7492074 h 0.93018 v 6.5163979 q 0,0.8733317 0.031,1.1523844 h -0.88884 q -0.0155,-0.082682 -0.0362,-0.3824056 -0.0155,-0.2997233 -0.0155,-0.5167643 z m -2.82153,-1.9016926 q 0,1.173055 0.31006,1.679484 0.31006,0.506429 1.00769,0.506429 0.79065,0 1.14722,-0.5477702 0.35656,-0.5477701 0.35656,-1.7001545 0,-1.1110433 -0.35656,-1.6278076 -0.35657,-0.5167643 -1.13689,-0.5167643 -0.70279,0 -1.01802,0.5219319 -0.31006,0.5167644 -0.31006,1.6846517 z"
         style="stroke-width:0.26458332"
         id="path4892"
         inkscape:connector-curvature="0" />
      <path
         d="M 692.72164,2.638042 V 1.7492074 h 0.93017 V 2.638042 Z m 0,6.7799477 V 3.8265999 h 0.93017 v 5.5913898 z"
         style="stroke-width:0.26458332"
         id="path4894"
         inkscape:connector-curvature="0" />
      <path
         d="m 696.50952,9.5213426 q -0.84232,0 -1.26607,-0.4444173 -0.42375,-0.4444173 -0.42375,-1.2195638 0,-0.868164 0.56844,-1.3332519 0.57361,-0.4650879 1.84485,-0.4960937 l 1.25574,-0.020671 V 5.7024544 q 0,-0.6821289 -0.28939,-0.9766846 -0.28939,-0.2945556 -0.9095,-0.2945556 -0.62529,0 -0.90951,0.2118733 -0.28422,0.2118734 -0.34106,0.6769613 l -0.97152,-0.08785 q 0.23771,-1.5089517 2.24276,-1.5089517 1.0542,0 1.58646,0.4857584 0.53227,0.4805908 0.53227,1.3952636 v 2.4081217 q 0,0.4134115 0.10852,0.6252848 0.10852,0.2067057 0.41341,0.2067057 0.13436,0 0.30489,-0.036174 v 0.5787761 q -0.3514,0.082682 -0.7183,0.082682 -0.51676,0 -0.75448,-0.2687175 -0.23254,-0.2738851 -0.26355,-0.8526611 h -0.031 q -0.35657,0.6407878 -0.83199,0.9095052 -0.47026,0.2635498 -1.14722,0.2635506 z m 0.21187,-0.6976318 q 0.5116,0 0.90951,-0.232544 0.39791,-0.2325439 0.62528,-0.6356201 0.23255,-0.4082438 0.23255,-0.8371581 V 6.6584683 l -1.01803,0.020671 q -0.65629,0.010335 -0.99735,0.1343587 -0.3359,0.1240235 -0.51677,0.3824056 -0.18086,0.2583822 -0.18086,0.6769613 0,0.4547525 0.24288,0.7027994 0.24804,0.2480469 0.70279,0.2480465 z"
         style="stroke-width:0.26458332"
         id="path4896"
         inkscape:connector-curvature="0" />
      <path
         d="m 709.69734,4.3278613 q 0,1.0335286 -0.67696,1.6433105 -0.67179,0.6097819 -1.82934,0.6097819 h -2.13941 v 2.837036 h -0.98702 V 2.1367806 h 3.06442 q 1.22473,0 1.89652,0.5736084 0.67179,0.5736084 0.67179,1.6174723 z m -0.99218,0.010335 q 0,-1.4107666 -1.69499,-1.4107666 h -1.95854 v 2.8732096 h 1.99988 q 1.65365,0 1.65365,-1.462443 z"
         style="stroke-width:0.26458332"
         id="path4898"
         inkscape:connector-curvature="0" />
      <path
         d="M 710.97892,9.4179897 V 1.7492074 h 0.93018 v 7.6687823 z"
         style="stroke-width:0.26458332"
         id="path4900"
         inkscape:connector-curvature="0" />
      <path
         d="m 714.76163,9.5213426 q -0.84232,0 -1.26607,-0.4444173 -0.42374,-0.4444173 -0.42374,-1.2195638 0,-0.868164 0.56844,-1.3332519 0.5736,-0.4650879 1.84484,-0.4960937 l 1.25574,-0.020671 V 5.7024544 q 0,-0.6821289 -0.28939,-0.9766846 -0.28938,-0.2945556 -0.9095,-0.2945556 -0.62529,0 -0.90951,0.2118733 -0.28422,0.2118734 -0.34106,0.6769613 l -0.97152,-0.08785 q 0.23771,-1.5089517 2.24276,-1.5089517 1.0542,0 1.58647,0.4857584 0.53226,0.4805908 0.53226,1.3952636 v 2.4081217 q 0,0.4134115 0.10852,0.6252848 0.10852,0.2067057 0.41342,0.2067057 0.13435,0 0.30489,-0.036174 v 0.5787761 q -0.3514,0.082682 -0.71831,0.082682 -0.51676,0 -0.75447,-0.2687175 -0.23255,-0.2738851 -0.26355,-0.8526611 h -0.031 q -0.35657,0.6407878 -0.83199,0.9095052 -0.47025,0.2635498 -1.14722,0.2635498 z m 0.21188,-0.6976318 q 0.51159,0 0.9095,-0.232544 0.39791,-0.2325439 0.62529,-0.6356201 0.23254,-0.4082438 0.23254,-0.8371581 V 6.6584683 l -1.01802,0.020671 q -0.65629,0.010335 -0.99736,0.1343587 -0.3359,0.1240235 -0.51676,0.3824056 -0.18087,0.2583822 -0.18087,0.6769613 0,0.4547525 0.24288,0.7027994 0.24805,0.2480469 0.7028,0.2480465 z"
         style="stroke-width:0.26458332"
         id="path4902"
         inkscape:connector-curvature="0" />
      <path
         d="m 719.50036,11.614238 q -0.3824,0 -0.64078,-0.05684 v -0.697632 q 0.19637,0.03101 0.43408,0.03101 0.86816,0 1.37459,-1.2764078 l 0.0879,-0.2222087 -2.21692,-5.5655516 h 0.99219 l 1.17822,3.0902506 q 0.0258,0.072347 0.062,0.1756998 0.0362,0.098185 0.23255,0.6717936 0.19637,0.5736084 0.21187,0.6407878 l 0.36174,-1.0180257 1.22473,-3.5605061 h 0.98185 l -2.14974,5.5913898 q -0.34623,0.8940023 -0.64596,1.3280843 -0.29972,0.43925 -0.66662,0.651123 -0.36174,0.217041 -0.82166,0.217041 z"
         style="stroke-width:0.26458332"
         id="path4904"
         inkscape:connector-curvature="0" />
      <path
         d="m 725.23128,6.8186653 q 0,0.9611816 0.39791,1.4831135 0.3979,0.521932 1.16272,0.521932 0.60461,0 0.96634,-0.2428792 0.36691,-0.2428793 0.4961,-0.6149496 l 0.81649,0.232544 q -0.50127,1.3229166 -2.27893,1.3229166 -1.24024,0 -1.89136,-0.738973 -0.64596,-0.7389729 -0.64596,-2.1962483 0,-1.3849283 0.64596,-2.1239013 0.65112,-0.7389729 1.85518,-0.7389729 2.46497,0 2.46497,2.9713947 v 0.1240235 z m 3.02824,-0.7131348 q -0.0775,-0.8836669 -0.44959,-1.2867431 -0.37207,-0.4082438 -1.0697,-0.4082438 -0.67696,0 -1.07487,0.4547526 -0.39274,0.4495849 -0.42375,1.2402343 z"
         style="stroke-width:0.26458332"
         id="path4906"
         inkscape:connector-curvature="0" />
      <path
         d="M 730.42993,9.4179897 V 5.128846 q 0,-0.5891113 -0.031,-1.3022461 h 0.8785 q 0.0413,0.9508464 0.0413,1.1420491 h 0.0207 q 0.22221,-0.7183023 0.5116,-0.9818521 0.28939,-0.2635498 0.81649,-0.2635498 0.18603,0 0.37723,0.051676 v 0.8526611 q -0.18603,-0.051676 -0.49609,-0.051676 -0.57878,0 -0.88367,0.5012613 -0.30489,0.4960938 -0.30489,1.4262695 v 2.9145507 z"
         style="stroke-width:0.26458332"
         id="path4908"
         inkscape:connector-curvature="0" />
    </g>
    <path
       style="fill:#000000;stroke:#000000;stroke-width:7.14901352;stroke-linecap:round;stroke-linejoin:miter;stroke-miterlimit:4;stroke-dasharray:none;stroke-opacity:1"
       d="M 499.43138,71.326859 602.78815,11.653799"
       id="path131-3"
       inkscape:connector-curvature="0" />
    <g
       id="g4990"
       transform="matrix(0.12637924,0,0,0.12637924,657.20245,18.531841)">
      <path
         id="path4976"
         d="M 501.45312,56.09375 C 495.55078,34.160156 478.25781,16.871094 456.32812,10.964844 416.26172,0 255.99609,0 255.99609,0 255.99609,0 95.734375,0 55.667969,10.546875 34.160156,16.449219 16.445312,34.164062 10.542969,56.09375 0,96.15625 0,179.24219 0,179.24219 c 0,0 0,83.5039 10.542969,123.14843 5.90625,21.92969 23.195312,39.22266 45.128906,45.12891 C 96.15625,358.48437 256,358.48437 256,358.48437 c 0,0 160.26172,0 200.32812,-10.54687 21.9336,-5.90234 39.22266,-23.19531 45.12891,-45.125 C 512,262.74609 512,179.66406 512,179.66406 c 0,0 0.42187,-83.50781 -10.54688,-123.57031 z m 0,0"
         inkscape:connector-curvature="0"
         style="fill:#ff0000" />
      <path
         id="path4978"
         d="M 204.96875,256 338.23828,179.24219 204.96875,102.48438 Z m 0,0"
         inkscape:connector-curvature="0"
         style="fill:#ffffff" />
    </g>
    <g
       data-name="Layer 2"
       id="Layer_2"
       transform="matrix(0.9054468,0,0,0.9054468,658.6202,204.97495)">
      <g
         id="brand">
        <g
           id="icon--color-black">
          <path
             id="path5077"
             d="M 29.49,2 23.2,0.36 A 10.58,10.58 0 0 0 10.25,7.87 L 8.68,13.8 A 32.4,32.4 0 0 1 29.49,2 Z"
             class="cls-1"
             inkscape:connector-curvature="0"
             style="fill:#231f20" />
          <path
             id="path5079"
             d="m 1.9,39.33 -1.54,5.81 a 10.58,10.58 0 0 0 7.51,12.94 l 6,1.6 A 32.41,32.41 0 0 1 1.9,39.33 Z"
             class="cls-1"
             inkscape:connector-curvature="0"
             style="fill:#231f20" />
          <path
             id="path5081"
             d="M 60.46,10.25 53.73,8.46 a 32.4,32.4 0 0 1 12.4,21.7 l 1.85,-7 A 10.58,10.58 0 0 0 60.46,10.25 Z"
             class="cls-1"
             inkscape:connector-curvature="0"
             style="fill:#231f20" />
          <path
             id="path5083"
             d="M 38.69,66.26 45.14,68 A 10.58,10.58 0 0 0 58.08,60.49 L 59.9,53.65 A 32.42,32.42 0 0 1 38.69,66.26 Z"
             class="cls-1"
             inkscape:connector-curvature="0"
             style="fill:#231f20" />
          <path
             id="path5085"
             d="M 34.17,4.54 A 29.63,29.63 0 1 0 63.79,34.17 29.63,29.63 0 0 0 34.17,4.54 Z M 17.39,19.32 a 8.46,8.46 0 1 1 6.71,9.91 8.46,8.46 0 0 1 -6.71,-9.91 z M 29.7,44.92 A 8.46,8.46 0 1 1 23,35 a 8.46,8.46 0 0 1 6.7,9.92 z m 3.59,-6.85 a 3.76,3.76 0 1 1 4.41,-3 3.76,3.76 0 0 1 -4.41,3 z M 50.94,49 A 8.46,8.46 0 1 1 44.23,39.09 8.46,8.46 0 0 1 50.94,49 Z m -5.6,-15.68 a 8.46,8.46 0 1 1 9.91,-6.71 8.46,8.46 0 0 1 -9.91,6.72 z"
             class="cls-2"
             inkscape:connector-curvature="0"
             style="fill:#ed145b" />
        </g>
      </g>
    </g>
    <g
       id="g5111"
       transform="matrix(2.3035753,0,0,2.3035753,660.81741,111.40714)"
       style="fill:#673ab7">
      <path
         id="path5105"
         d="M 0.975,4.175 V 20.869 H 6.724 V 24 h 3.139 l 3.134,-3.132 h 4.705 L 23.976,14.61 V 0 H 2.542 Z m 3.658,-2.09 h 17.252 v 11.479 l -3.66,3.652 H 12.474 L 9.34,20.343 V 17.216 H 4.633 Z"
         inkscape:connector-curvature="0" />
      <path
         id="path5107"
         d="m 10.385,6.262 h 2.09 v 6.26 h -2.09 z"
         inkscape:connector-curvature="0" />
      <path
         id="path5109"
         d="m 16.133,6.262 h 2.091 v 6.26 h -2.091 z"
         inkscape:connector-curvature="0" />
    </g>
    <g
       aria-label="Youtube"
       style="font-style:normal;font-weight:normal;font-size:10.58333302px;line-height:1.25;font-family:sans-serif;letter-spacing:0px;word-spacing:0px;fill:#000000;fill-opacity:1;stroke:none;stroke-width:0.26458332"
       id="text5127">
      <path
         d="m 674.44806,71.613856 v 3.017904 h -0.98185 v -3.017904 l -2.80087,-4.263305 h 1.08521 l 2.21692,3.467488 2.20658,-3.467488 h 1.08521 z"
         style="stroke-width:0.26458332"
         id="path936" />
      <path
         d="m 681.97215,71.830897 q 0,1.467611 -0.64596,2.185913 -0.64595,0.718303 -1.87585,0.718303 -1.22473,0 -1.85002,-0.744141 -0.62528,-0.749308 -0.62528,-2.160075 0,-2.89388 2.5063,-2.89388 1.28158,0 1.88619,0.707967 0.60462,0.7028 0.60462,2.185913 z m -0.97669,0 q 0,-1.157552 -0.34623,-1.679484 -0.34106,-0.527099 -1.15238,-0.527099 -0.81649,0 -1.18339,0.537434 -0.36174,0.532268 -0.36174,1.669149 0,1.105876 0.35657,1.663981 0.36173,0.552938 1.13171,0.552938 0.83716,0 1.19373,-0.537435 0.36173,-0.537435 0.36173,-1.679484 z"
         style="stroke-width:0.26458332"
         id="path938" />
      <path
         d="m 684.04437,69.04037 v 3.545003 q 0,0.552938 0.10852,0.857829 0.10852,0.304891 0.34623,0.439249 0.23772,0.134359 0.69764,0.134359 0.67179,0 1.05936,-0.45992 0.38758,-0.45992 0.38758,-1.276408 V 69.04037 h 0.93017 v 4.397664 q 0,0.976685 0.031,1.193726 h -0.8785 q -0.005,-0.02584 -0.0103,-0.139527 -0.005,-0.113688 -0.0155,-0.258382 -0.005,-0.149862 -0.0155,-0.558105 h -0.0155 q -0.32039,0.578776 -0.74414,0.821655 -0.41858,0.237712 -1.04386,0.237712 -0.91984,0 -1.34875,-0.454753 -0.42375,-0.45992 -0.42375,-1.51412 v -3.72587 z"
         style="stroke-width:0.26458332"
         id="path940" />
      <path
         d="m 691.17572,74.590418 q -0.45992,0.124024 -0.94051,0.124024 -1.11621,0 -1.11621,-1.266073 v -3.731038 h -0.64596 V 69.04037 h 0.68213 l 0.27389,-1.25057 h 0.62011 v 1.25057 h 1.03353 v 0.676961 h -1.03353 v 3.5295 q 0,0.403076 0.12919,0.568441 0.13436,0.160197 0.45992,0.160197 0.18604,0 0.53744,-0.07235 z"
         style="stroke-width:0.26458332"
         id="path942" />
      <path
         d="m 692.87071,69.04037 v 3.545003 q 0,0.552938 0.10852,0.857829 0.10852,0.304891 0.34623,0.439249 0.23771,0.134359 0.69763,0.134359 0.67179,0 1.05937,-0.45992 0.38757,-0.45992 0.38757,-1.276408 V 69.04037 h 0.93018 v 4.397664 q 0,0.976685 0.031,1.193726 h -0.8785 q -0.005,-0.02584 -0.0103,-0.139527 -0.005,-0.113688 -0.0155,-0.258382 -0.005,-0.149862 -0.0155,-0.558105 h -0.0155 q -0.3204,0.578776 -0.74414,0.821655 -0.41858,0.237712 -1.04387,0.237712 -0.91984,0 -1.34875,-0.454753 -0.42375,-0.45992 -0.42375,-1.51412 v -3.72587 z"
         style="stroke-width:0.26458332"
         id="path944" />
      <path
         d="m 702.58071,71.810227 q 0,2.924886 -2.05672,2.924886 -0.63562,0 -1.05937,-0.227377 -0.41858,-0.232544 -0.68213,-0.74414 h -0.0103 q 0,0.160197 -0.0207,0.490926 -0.0207,0.325561 -0.031,0.377238 h -0.89917 q 0.031,-0.279053 0.031,-1.152385 v -6.516398 h 0.93018 v 2.185913 q 0,0.335897 -0.0207,0.79065 h 0.0207 q 0.25838,-0.537435 0.68213,-0.769979 0.42891,-0.232544 1.05937,-0.232544 1.05936,0 1.55546,0.713135 0.50126,0.713134 0.50126,2.160075 z m -0.97669,0.03101 q 0,-1.173055 -0.31006,-1.679484 -0.31005,-0.506429 -1.00769,-0.506429 -0.78548,0 -1.14721,0.537435 -0.35657,0.537435 -0.35657,1.705322 0,1.100708 0.3514,1.627808 0.3514,0.521932 1.14205,0.521932 0.7028,0 1.01286,-0.516764 0.31522,-0.521932 0.31522,-1.68982 z"
         style="stroke-width:0.26458332"
         id="path946" />
      <path
         d="m 704.45656,72.032435 q 0,0.961182 0.39791,1.483114 0.39791,0.521932 1.16272,0.521932 0.60461,0 0.96635,-0.24288 0.3669,-0.242879 0.49609,-0.614949 l 0.81649,0.232544 q -0.50126,1.322917 -2.27893,1.322917 -1.24023,0 -1.89136,-0.738973 -0.64595,-0.738973 -0.64595,-2.196249 0,-1.384928 0.64595,-2.123901 0.65113,-0.738973 1.85519,-0.738973 2.46496,0 2.46496,2.971395 v 0.124023 z M 707.4848,71.3193 q -0.0775,-0.883667 -0.44958,-1.286743 -0.37207,-0.408243 -1.06971,-0.408243 -0.67696,0 -1.07487,0.454752 -0.39274,0.449585 -0.42374,1.240234 z"
         style="stroke-width:0.26458332"
         id="path948" />
    </g>
    <g
       aria-label="Twitch"
       style="font-style:normal;font-weight:normal;font-size:10.58333302px;line-height:1.25;font-family:sans-serif;letter-spacing:0px;word-spacing:0px;fill:#000000;fill-opacity:1;stroke:none;stroke-width:0.26458332"
       id="text5131">
      <path
         d="m 678.49689,177.20266 v 6.47506 h -0.98186 v -6.47506 h -2.50113 v -0.80615 h 5.98413 v 0.80615 z"
         style="stroke-width:0.26458332"
         id="path923" />
      <path
         d="m 686.73411,183.67772 h -1.08004 l -0.97668,-3.95325 -0.18604,-0.87333 q -0.0465,0.23254 -0.14469,0.67179 -0.0982,0.43409 -1.0542,4.15479 h -1.07487 l -1.5658,-5.59139 h 0.91984 l 0.94568,3.79822 q 0.0362,0.12402 0.22221,1.02319 l 0.0879,-0.38241 1.16789,-4.439 h 0.99735 l 0.97669,3.83956 0.23771,0.98185 0.1602,-0.7183 1.05936,-4.10311 h 0.90951 z"
         style="stroke-width:0.26458332"
         id="path925" />
      <path
         d="m 689.02338,176.89777 v -0.88883 h 0.93017 v 0.88883 z m 0,6.77995 v -5.59139 h 0.93017 v 5.59139 z"
         style="stroke-width:0.26458332"
         id="path927" />
      <path
         d="m 693.53473,183.63638 q -0.45992,0.12402 -0.94051,0.12402 -1.11621,0 -1.11621,-1.26607 v -3.73104 h -0.64596 v -0.67696 h 0.68213 l 0.27388,-1.25057 h 0.62012 v 1.25057 h 1.03353 v 0.67696 h -1.03353 v 3.5295 q 0,0.40308 0.12919,0.56844 0.13436,0.1602 0.45992,0.1602 0.18604,0 0.53744,-0.0724 z"
         style="stroke-width:0.26458332"
         id="path929" />
      <path
         d="m 695.02818,180.85619 q 0,1.11621 0.3514,1.65364 0.3514,0.53744 1.05936,0.53744 0.4961,0 0.82683,-0.26872 0.33589,-0.26872 0.41341,-0.82682 l 0.94051,0.062 q -0.10852,0.80615 -0.6873,1.28674 -0.57877,0.48059 -1.46761,0.48059 -1.17305,0 -1.79317,-0.73897 -0.61495,-0.74414 -0.61495,-2.16524 0,-1.41077 0.62012,-2.14974 0.62011,-0.74414 1.77767,-0.74414 0.85782,0 1.4211,0.44441 0.56844,0.44442 0.71313,1.22474 l -0.95601,0.0723 q -0.0723,-0.46509 -0.3669,-0.73897 -0.29456,-0.27389 -0.83716,-0.27389 -0.73898,0 -1.0697,0.49093 -0.33073,0.49093 -0.33073,1.65365 z"
         style="stroke-width:0.26458332"
         id="path931" />
      <path
         d="m 700.53689,179.04234 q 0.29972,-0.54777 0.7183,-0.80098 0.42374,-0.25838 1.0697,-0.25838 0.90951,0 1.33842,0.45475 0.43408,0.44958 0.43408,1.51412 v 3.72587 h -0.93534 v -3.545 q 0,-0.58912 -0.10852,-0.87334 -0.10852,-0.28938 -0.35657,-0.42374 -0.24805,-0.13436 -0.6873,-0.13436 -0.65629,0 -1.0542,0.45475 -0.39274,0.45475 -0.39274,1.22473 v 3.29696 h -0.93017 v -7.66878 h 0.93017 v 1.99471 q 0,0.31522 -0.0207,0.65112 -0.0155,0.3359 -0.0207,0.38757 z"
         style="stroke-width:0.26458332"
         id="path933" />
    </g>
    <g
       aria-label="Aparat"
       style="font-style:normal;font-weight:normal;font-size:10.58333302px;line-height:1.25;font-family:sans-serif;letter-spacing:0px;word-spacing:0px;fill:#000000;fill-opacity:1;stroke:none;stroke-width:0.26458332"
       id="text5135">
      <path
         d="m 680.00586,279.78748 -0.83199,-2.12907 h -3.31763 l -0.83716,2.12907 h -1.02319 l 2.9714,-7.28121 h 1.12137 l 2.92489,7.28121 z m -2.4908,-6.53707 -0.0465,0.14469 q -0.12919,0.42892 -0.38241,1.10071 l -0.93017,2.39262 h 2.72334 l -0.93534,-2.40296 q -0.14469,-0.35656 -0.28939,-0.80615 z"
         style="stroke-width:0.26458332"
         id="path910" />
      <path
         d="m 686.48608,276.96594 q 0,2.92489 -2.05672,2.92489 -1.29191,0 -1.73633,-0.97152 h -0.0258 q 0.0207,0.0413 0.0207,0.8785 v 2.18591 h -0.93018 v -6.64559 q 0,-0.86299 -0.031,-1.14204 h 0.89917 q 0.005,0.0207 0.0155,0.14986 0.0103,0.12402 0.0207,0.38757 0.0155,0.26355 0.0155,0.36174 h 0.0207 q 0.24805,-0.51677 0.65629,-0.75448 0.40825,-0.24288 1.07487,-0.24288 1.03353,0 1.54513,0.69246 0.51159,0.69247 0.51159,2.17558 z m -0.97668,0.0207 q 0,-1.16788 -0.31523,-1.66915 -0.31522,-0.50126 -1.00252,-0.50126 -0.55294,0 -0.86816,0.23255 -0.31006,0.23254 -0.47543,0.72863 -0.16019,0.49093 -0.16019,1.28158 0,1.10071 0.3514,1.62264 0.3514,0.52193 1.14205,0.52193 0.69246,0 1.00769,-0.50643 0.32039,-0.51159 0.32039,-1.71049 z"
         style="stroke-width:0.26458332"
         id="path912" />
      <path
         d="m 689.07507,279.89083 q -0.84232,0 -1.26607,-0.44442 -0.42375,-0.44442 -0.42375,-1.21956 0,-0.86817 0.56844,-1.33325 0.57361,-0.46509 1.84485,-0.4961 l 1.25574,-0.0207 v -0.30489 q 0,-0.68213 -0.28939,-0.97668 -0.28939,-0.29456 -0.9095,-0.29456 -0.62529,0 -0.90951,0.21187 -0.28422,0.21188 -0.34106,0.67696 l -0.97152,-0.0879 q 0.23771,-1.50895 2.24276,-1.50895 1.0542,0 1.58646,0.48576 0.53227,0.48059 0.53227,1.39526 v 2.40813 q 0,0.41341 0.10852,0.62528 0.10852,0.20671 0.41341,0.20671 0.13436,0 0.30489,-0.0362 v 0.57878 q -0.3514,0.0827 -0.7183,0.0827 -0.51676,0 -0.75447,-0.26872 -0.23255,-0.27388 -0.26355,-0.85266 h -0.031 q -0.35657,0.64079 -0.83199,0.90951 -0.47026,0.26355 -1.14722,0.26355 z m 0.21188,-0.69763 q 0.51159,0 0.9095,-0.23255 0.39791,-0.23254 0.62529,-0.63562 0.23254,-0.40824 0.23254,-0.83716 v -0.45992 l -1.01803,0.0207 q -0.65629,0.0103 -0.99735,0.13436 -0.3359,0.12403 -0.51676,0.38241 -0.18087,0.25838 -0.18087,0.67696 0,0.45475 0.24288,0.7028 0.24804,0.24805 0.7028,0.24805 z"
         style="stroke-width:0.26458332"
         id="path914" />
      <path
         d="m 693.56059,279.78748 v -4.28915 q 0,-0.58911 -0.031,-1.30224 h 0.8785 q 0.0413,0.95084 0.0413,1.14204 h 0.0207 q 0.22221,-0.7183 0.5116,-0.98185 0.28939,-0.26355 0.81649,-0.26355 0.18603,0 0.37723,0.0517 v 0.85266 q -0.18603,-0.0517 -0.49609,-0.0517 -0.57877,0 -0.88367,0.50127 -0.30489,0.49609 -0.30489,1.42626 v 2.91456 z"
         style="stroke-width:0.26458332"
         id="path916" />
      <path
         d="m 698.50085,279.89083 q -0.84232,0 -1.26607,-0.44442 -0.42374,-0.44442 -0.42374,-1.21956 0,-0.86817 0.56844,-1.33325 0.5736,-0.46509 1.84484,-0.4961 l 1.25574,-0.0207 v -0.30489 q 0,-0.68213 -0.28939,-0.97668 -0.28938,-0.29456 -0.9095,-0.29456 -0.62529,0 -0.90951,0.21187 -0.28422,0.21188 -0.34106,0.67696 l -0.97152,-0.0879 q 0.23771,-1.50895 2.24276,-1.50895 1.0542,0 1.58647,0.48576 0.53226,0.48059 0.53226,1.39526 v 2.40813 q 0,0.41341 0.10852,0.62528 0.10852,0.20671 0.41341,0.20671 0.13436,0 0.3049,-0.0362 v 0.57878 q -0.3514,0.0827 -0.71831,0.0827 -0.51676,0 -0.75447,-0.26872 -0.23255,-0.27388 -0.26355,-0.85266 h -0.031 q -0.35657,0.64079 -0.83199,0.90951 -0.47025,0.26355 -1.14722,0.26355 z m 0.21188,-0.69763 q 0.51159,0 0.9095,-0.23255 0.39791,-0.23254 0.62529,-0.63562 0.23254,-0.40824 0.23254,-0.83716 v -0.45992 l -1.01802,0.0207 q -0.65629,0.0103 -0.99736,0.13436 -0.3359,0.12403 -0.51676,0.38241 -0.18087,0.25838 -0.18087,0.67696 0,0.45475 0.24288,0.7028 0.24805,0.24805 0.7028,0.24805 z"
         style="stroke-width:0.26458332"
         id="path918" />
      <path
         d="m 705.11544,279.74613 q -0.45992,0.12403 -0.94051,0.12403 -1.11621,0 -1.11621,-1.26607 v -3.73104 h -0.64596 v -0.67696 h 0.68213 l 0.27388,-1.25057 h 0.62012 v 1.25057 h 1.03353 v 0.67696 h -1.03353 v 3.5295 q 0,0.40307 0.12919,0.56844 0.13436,0.16019 0.45992,0.16019 0.18604,0 0.53744,-0.0723 z"
         style="stroke-width:0.26458332"
         id="path920" />
    </g>
    <path
       style="fill:#000000;stroke:#000000;stroke-width:7.14901352;stroke-linecap:round;stroke-linejoin:miter;stroke-miterlimit:4;stroke-dasharray:none;stroke-opacity:1"
       d="M 500.25311,93.218335 615.53261,62.32928"
       id="path131-3-6"
       inkscape:connector-curvature="0" />
    <path
       style="fill:#000000;stroke:#000000;stroke-width:7.14901352;stroke-linecap:round;stroke-linejoin:miter;stroke-miterlimit:4;stroke-dasharray:none;stroke-opacity:1"
       d="m 501.00907,112.22215 115.2795,30.88904"
       id="path131-3-7"
       inkscape:connector-curvature="0" />
    <path
       style="fill:#000000;stroke:#000000;stroke-width:7.14901352;stroke-linecap:round;stroke-linejoin:miter;stroke-miterlimit:4;stroke-dasharray:none;stroke-opacity:1"
       d="m 500.16685,134.87181 103.35677,59.67306"
       id="path131-3-5"
       inkscape:connector-curvature="0" />
  </g>
</svg>
